<svg xmlns="http://www.w3.org/2000/svg" version="1.1" width="20in" height="11in" viewBox = " 0 0 1800 990" >
<!-- Front--> 
<g transform="translate(22.5, 22.5) " > 
<polygon style="stroke:#0000ff; fill:none; stroke-width:0.9" points="10.62, 0 33.75, 0 33.75, 10.62 45.405, 10.62 45.405, 15.749999999999998 39.195, 15.749999999999998 39.195, 24.93 45.405, 24.93 45.405, 34.11 55.845, 34.11 55.845, 24.93 62.055, 24.93 62.055, 15.749999999999998 55.845, 15.749999999999998 55.845, 10.62 67.5, 10.62 67.5, 0 94.5, 0 94.5, 10.62 121.5, 10.62 121.5, 0 148.5, 0 148.5, 10.62 175.5, 10.62 175.5, 0 202.5, 0 202.5, 10.62 229.5, 10.62 229.5, 0 256.5, 0 256.5, 10.62 283.5, 10.62 283.5, 0 310.5, 0 310.5, 10.62 337.5, 10.62 337.5, 0 364.5, 0 364.5, 10.62 391.5, 10.62 391.5, 0 418.5, 0 418.5, 10.62 445.5, 10.62 445.5, 0 472.5, 0 472.5, 10.62 484.155, 10.62 484.155, 15.749999999999998 477.945, 15.749999999999998 477.945, 24.93 484.155, 24.93 484.155, 34.11 494.595, 34.11 494.595, 24.93 500.805, 24.93 500.805, 15.749999999999998 494.595, 15.749999999999998 494.595, 10.62 506.25, 10.62 506.25, 0 529.38, 0 529.38, 33.75 540, 33.75 540, 44.055 526.86, 44.055 526.86, 57.195 540, 57.195 540, 67.5 529.38, 67.5 529.38, 94.5 540, 94.5 540, 121.5 529.38, 121.5 529.38, 148.5 540, 148.5 540, 175.5 529.38, 175.5 529.38, 202.5 540, 202.5 540, 212.805 526.86, 212.805 526.86, 225.945 540, 225.945 540, 236.25 529.38, 236.25 529.38, 270 506.25, 270 506.25, 259.38 494.595, 259.38 494.595, 254.25 500.805, 254.25 500.805, 245.07 494.595, 245.07 494.595, 235.89 484.155, 235.89 484.155, 245.07 477.945, 245.07 477.945, 254.25 484.155, 254.25 484.155, 259.38 472.5, 259.38 472.5, 270 445.5, 270 445.5, 259.38 418.5, 259.38 418.5, 270 391.5, 270 391.5, 259.38 364.5, 259.38 364.5, 270 337.5, 270 337.5, 259.38 310.5, 259.38 310.5, 270 283.5, 270 283.5, 259.38 256.5, 259.38 256.5, 270 229.5, 270 229.5, 259.38 202.5, 259.38 202.5, 270 175.5, 270 175.5, 259.38 148.5, 259.38 148.5, 270 121.5, 270 121.5, 259.38 94.5, 259.38 94.5, 270 67.5, 270 67.5, 259.38 55.845, 259.38 55.845, 254.25 62.055, 254.25 62.055, 245.07 55.845, 245.07 55.845, 235.89 45.405, 235.89 45.405, 245.07 39.195, 245.07 39.195, 254.25 45.405, 254.25 45.405, 259.38 33.75, 259.38 33.75, 270 10.62, 270 10.62, 236.25 0, 236.25 0, 225.945 13.139999999999999, 225.945 13.139999999999999, 212.805 0, 212.805 0, 202.5 10.62, 202.5 10.62, 175.5 0, 175.5 0, 148.5 10.62, 148.5 10.62, 121.5 0, 121.5 0, 94.5 10.62, 94.5 10.62, 67.5 0, 67.5 0, 57.195 13.139999999999999, 57.195 13.139999999999999, 44.055 0, 44.055 0, 33.75 10.62, 33.75 "/> 
</g>
<!-- Back--> 
<g transform="translate(562.5, 22.5) " > 
<polygon style="stroke:#0000ff; fill:none; stroke-width:0.9" points="10.62, 0 33.75, 0 33.75, 10.62 45.405, 10.62 45.405, 15.749999999999998 39.195, 15.749999999999998 39.195, 24.93 45.405, 24.93 45.405, 34.11 55.845, 34.11 55.845, 24.93 62.055, 24.93 62.055, 15.749999999999998 55.845, 15.749999999999998 55.845, 10.62 67.5, 10.62 67.5, 0 94.5, 0 94.5, 10.62 121.5, 10.62 121.5, 0 148.5, 0 148.5, 10.62 175.5, 10.62 175.5, 0 202.5, 0 202.5, 10.62 229.5, 10.62 229.5, 0 256.5, 0 256.5, 10.62 283.5, 10.62 283.5, 0 310.5, 0 310.5, 10.62 337.5, 10.62 337.5, 0 364.5, 0 364.5, 10.62 391.5, 10.62 391.5, 0 418.5, 0 418.5, 10.62 445.5, 10.62 445.5, 0 472.5, 0 472.5, 10.62 484.155, 10.62 484.155, 15.749999999999998 477.945, 15.749999999999998 477.945, 24.93 484.155, 24.93 484.155, 34.11 494.595, 34.11 494.595, 24.93 500.805, 24.93 500.805, 15.749999999999998 494.595, 15.749999999999998 494.595, 10.62 506.25, 10.62 506.25, 0 529.38, 0 529.38, 33.75 540, 33.75 540, 44.055 526.86, 44.055 526.86, 57.195 540, 57.195 540, 67.5 529.38, 67.5 529.38, 94.5 540, 94.5 540, 121.5 529.38, 121.5 529.38, 148.5 540, 148.5 540, 175.5 529.38, 175.5 529.38, 202.5 540, 202.5 540, 212.805 526.86, 212.805 526.86, 225.945 540, 225.945 540, 236.25 529.38, 236.25 529.38, 270 506.25, 270 506.25, 259.38 494.595, 259.38 494.595, 254.25 500.805, 254.25 500.805, 245.07 494.595, 245.07 494.595, 235.89 484.155, 235.89 484.155, 245.07 477.945, 245.07 477.945, 254.25 484.155, 254.25 484.155, 259.38 472.5, 259.38 472.5, 270 445.5, 270 445.5, 259.38 418.5, 259.38 418.5, 270 391.5, 270 391.5, 259.38 364.5, 259.38 364.5, 270 337.5, 270 337.5, 259.38 310.5, 259.38 310.5, 270 283.5, 270 283.5, 259.38 256.5, 259.38 256.5, 270 229.5, 270 229.5, 259.38 202.5, 259.38 202.5, 270 175.5, 270 175.5, 259.38 148.5, 259.38 148.5, 270 121.5, 270 121.5, 259.38 94.5, 259.38 94.5, 270 67.5, 270 67.5, 259.38 55.845, 259.38 55.845, 254.25 62.055, 254.25 62.055, 245.07 55.845, 245.07 55.845, 235.89 45.405, 235.89 45.405, 245.07 39.195, 245.07 39.195, 254.25 45.405, 254.25 45.405, 259.38 33.75, 259.38 33.75, 270 10.62, 270 10.62, 236.25 0, 236.25 0, 225.945 13.139999999999999, 225.945 13.139999999999999, 212.805 0, 212.805 0, 202.5 10.62, 202.5 10.62, 175.5 0, 175.5 0, 148.5 10.62, 148.5 10.62, 121.5 0, 121.5 0, 94.5 10.62, 94.5 10.62, 67.5 0, 67.5 0, 57.195 13.139999999999999, 57.195 13.139999999999999, 44.055 0, 44.055 0, 33.75 10.62, 33.75 "/> 
</g>
<!-- Left--> 
<g transform="translate(1102.5, 22.5) " > 
<polygon style="stroke:#0000ff; fill:none; stroke-width:0.9" points="0, 10.62 40.500000000000014, 10.62 40.500000000000014, 0 54.18000000000002, 0 54.18000000000002, 13.139999999999999 67.32000000000002, 13.139999999999999 67.32000000000002, 0 81.00000000000003, 0 81.00000000000003, 10.62 108.00000000000003, 10.62 108.00000000000003, 0 135.00000000000003, 0 135.00000000000003, 10.62 162.00000000000003, 10.62 162.00000000000003, 0 189.00000000000003, 0 189.00000000000003, 10.62 216.00000000000003, 10.62 216.00000000000003, 0 243.00000000000003, 0 243.00000000000003, 10.62 270, 10.62 270, 0 297, 0 297, 10.62 324, 10.62 324, 0 351, 0 351, 10.62 378, 10.62 378, 0 405, 0 405, 10.62 432, 10.62 432, 0 459, 0 459, 10.62 486, 10.62 486, 0 513, 0 513, 10.62 540, 10.62 540, 0 567, 0 567, 10.62 594, 10.62 594, 0 607.68, 0 607.68, 13.139999999999999 620.82, 13.139999999999999 620.82, 0 634.5, 0 634.5, 10.62 675, 10.62 675, 33.75 664.38, 33.75 664.38, 45.405 659.25, 45.405 659.25, 39.195 650.07, 39.195 650.07, 45.405 640.89, 45.405 640.89, 55.845 650.07, 55.845 650.07, 62.055 659.25, 62.055 659.25, 55.845 664.38, 55.845 664.38, 67.5 675, 67.5 675, 94.5 664.38, 94.5 664.38, 121.5 675, 121.5 675, 148.5 664.38, 148.5 664.38, 175.5 675, 175.5 675, 202.5 664.38, 202.5 664.38, 214.155 659.25, 214.155 659.25, 207.945 650.07, 207.945 650.07, 214.155 640.89, 214.155 640.89, 224.595 650.07, 224.595 650.07, 230.805 659.25, 230.805 659.25, 224.595 664.38, 224.595 664.38, 236.25 675, 236.25 675, 259.38 634.5, 259.38 634.5, 270 620.82, 270 620.82, 256.86 607.68, 256.86 607.68, 270 594, 270 594, 259.38 567, 259.38 567, 270 540, 270 540, 259.38 513, 259.38 513, 270 486, 270 486, 259.38 459, 259.38 459, 270 432, 270 432, 259.38 405, 259.38 405, 270 378, 270 378, 259.38 351, 259.38 351, 270 324, 270 324, 259.38 297, 259.38 297, 270 270, 270 270, 259.38 243.00000000000003, 259.38 243.00000000000003, 270 216.00000000000003, 270 216.00000000000003, 259.38 189.00000000000003, 259.38 189.00000000000003, 270 162.00000000000003, 270 162.00000000000003, 259.38 135.00000000000003, 259.38 135.00000000000003, 270 108.00000000000003, 270 108.00000000000003, 259.38 81.00000000000003, 259.38 81.00000000000003, 270 67.32000000000002, 270 67.32000000000002, 256.86 54.18000000000002, 256.86 54.18000000000002, 270 40.500000000000014, 270 40.500000000000014, 259.38 0, 259.38 0, 236.25 10.62, 236.25 10.62, 224.595 15.749999999999998, 224.595 15.749999999999998, 230.805 24.93, 230.805 24.93, 224.595 34.11, 224.595 34.11, 214.155 24.93, 214.155 24.93, 207.945 15.749999999999998, 207.945 15.749999999999998, 214.155 10.62, 214.155 10.62, 202.5 0, 202.5 0, 175.5 10.62, 175.5 10.62, 148.5 0, 148.5 0, 121.5 10.62, 121.5 10.62, 94.5 0, 94.5 0, 67.5 10.62, 67.5 10.62, 55.845 15.749999999999998, 55.845 15.749999999999998, 62.055 24.93, 62.055 24.93, 55.845 34.11, 55.845 34.11, 45.405 24.93, 45.405 24.93, 39.195 15.749999999999998, 39.195 15.749999999999998, 45.405 10.62, 45.405 10.62, 33.75 0, 33.75 "/> 
</g>
<!-- Right--> 
<g transform="translate(1102.5, 292.5) " > 
<polygon style="stroke:#0000ff; fill:none; stroke-width:0.9" points="0, 10.62 40.500000000000014, 10.62 40.500000000000014, 0 54.18000000000002, 0 54.18000000000002, 13.139999999999999 67.32000000000002, 13.139999999999999 67.32000000000002, 0 81.00000000000003, 0 81.00000000000003, 10.62 108.00000000000003, 10.62 108.00000000000003, 0 135.00000000000003, 0 135.00000000000003, 10.62 162.00000000000003, 10.62 162.00000000000003, 0 189.00000000000003, 0 189.00000000000003, 10.62 216.00000000000003, 10.62 216.00000000000003, 0 243.00000000000003, 0 243.00000000000003, 10.62 270, 10.62 270, 0 297, 0 297, 10.62 324, 10.62 324, 0 351, 0 351, 10.62 378, 10.62 378, 0 405, 0 405, 10.62 432, 10.62 432, 0 459, 0 459, 10.62 486, 10.62 486, 0 513, 0 513, 10.62 540, 10.62 540, 0 567, 0 567, 10.62 594, 10.62 594, 0 607.68, 0 607.68, 13.139999999999999 620.82, 13.139999999999999 620.82, 0 634.5, 0 634.5, 10.62 675, 10.62 675, 33.75 664.38, 33.75 664.38, 45.405 659.25, 45.405 659.25, 39.195 650.07, 39.195 650.07, 45.405 640.89, 45.405 640.89, 55.845 650.07, 55.845 650.07, 62.055 659.25, 62.055 659.25, 55.845 664.38, 55.845 664.38, 67.5 675, 67.5 675, 94.5 664.38, 94.5 664.38, 121.5 675, 121.5 675, 148.5 664.38, 148.5 664.38, 175.5 675, 175.5 675, 202.5 664.38, 202.5 664.38, 214.155 659.25, 214.155 659.25, 207.945 650.07, 207.945 650.07, 214.155 640.89, 214.155 640.89, 224.595 650.07, 224.595 650.07, 230.805 659.25, 230.805 659.25, 224.595 664.38, 224.595 664.38, 236.25 675, 236.25 675, 259.38 634.5, 259.38 634.5, 270 620.82, 270 620.82, 256.86 607.68, 256.86 607.68, 270 594, 270 594, 259.38 567, 259.38 567, 270 540, 270 540, 259.38 513, 259.38 513, 270 486, 270 486, 259.38 459, 259.38 459, 270 432, 270 432, 259.38 405, 259.38 405, 270 378, 270 378, 259.38 351, 259.38 351, 270 324, 270 324, 259.38 297, 259.38 297, 270 270, 270 270, 259.38 243.00000000000003, 259.38 243.00000000000003, 270 216.00000000000003, 270 216.00000000000003, 259.38 189.00000000000003, 259.38 189.00000000000003, 270 162.00000000000003, 270 162.00000000000003, 259.38 135.00000000000003, 259.38 135.00000000000003, 270 108.00000000000003, 270 108.00000000000003, 259.38 81.00000000000003, 259.38 81.00000000000003, 270 67.32000000000002, 270 67.32000000000002, 256.86 54.18000000000002, 256.86 54.18000000000002, 270 40.500000000000014, 270 40.500000000000014, 259.38 0, 259.38 0, 236.25 10.62, 236.25 10.62, 224.595 15.749999999999998, 224.595 15.749999999999998, 230.805 24.93, 230.805 24.93, 224.595 34.11, 224.595 34.11, 214.155 24.93, 214.155 24.93, 207.945 15.749999999999998, 207.945 15.749999999999998, 214.155 10.62, 214.155 10.62, 202.5 0, 202.5 0, 175.5 10.62, 175.5 10.62, 148.5 0, 148.5 0, 121.5 10.62, 121.5 10.62, 94.5 0, 94.5 0, 67.5 10.62, 67.5 10.62, 55.845 15.749999999999998, 55.845 15.749999999999998, 62.055 24.93, 62.055 24.93, 55.845 34.11, 55.845 34.11, 45.405 24.93, 45.405 24.93, 39.195 15.749999999999998, 39.195 15.749999999999998, 45.405 10.62, 45.405 10.62, 33.75 0, 33.75 "/> 
</g>
<!-- Top--> 
<g transform="translate(22.5, 292.5) " > 
<polygon style="stroke:#0000ff; fill:none; stroke-width:0.9" points="0, 10.62 33.75, 10.62 33.75, 0 44.055, 0 44.055, 13.139999999999999 57.195, 13.139999999999999 57.195, 0 67.5, 0 67.5, 10.62 94.5, 10.62 94.5, 0 121.5, 0 121.5, 10.62 148.5, 10.62 148.5, 0 175.5, 0 175.5, 10.62 202.5, 10.62 202.5, 0 229.5, 0 229.5, 10.62 256.5, 10.62 256.5, 0 283.5, 0 283.5, 10.62 310.5, 10.62 310.5, 0 337.5, 0 337.5, 10.62 364.5, 10.62 364.5, 0 391.5, 0 391.5, 10.62 418.5, 10.62 418.5, 0 445.5, 0 445.5, 10.62 472.5, 10.62 472.5, 0 482.805, 0 482.805, 13.139999999999999 495.945, 13.139999999999999 495.945, 0 506.25, 0 506.25, 10.62 540, 10.62 540, 40.500000000000014 529.38, 40.500000000000014 529.38, 55.53000000000002 524.25, 55.53000000000002 524.25, 49.32000000000002 515.07, 49.32000000000002 515.07, 55.53000000000002 505.89, 55.53000000000002 505.89, 65.97000000000003 515.07, 65.97000000000003 515.07, 72.18000000000002 524.25, 72.18000000000002 524.25, 65.97000000000003 529.38, 65.97000000000003 529.38, 81.00000000000003 540, 81.00000000000003 540, 108.00000000000003 529.38, 108.00000000000003 529.38, 135.00000000000003 540, 135.00000000000003 540, 162.00000000000003 529.38, 162.00000000000003 529.38, 189.00000000000003 540, 189.00000000000003 540, 216.00000000000003 529.38, 216.00000000000003 529.38, 243.00000000000003 540, 243.00000000000003 540, 270 529.38, 270 529.38, 297 540, 297 540, 324 529.38, 324 529.38, 351 540, 351 540, 378 529.38, 378 529.38, 405 540, 405 540, 432 529.38, 432 529.38, 459 540, 459 540, 486 529.38, 486 529.38, 513 540, 513 540, 540 529.38, 540 529.38, 567 540, 567 540, 594 529.38, 594 529.38, 609.03 524.25, 609.03 524.25, 602.82 515.07, 602.82 515.07, 609.03 505.89, 609.03 505.89, 619.47 515.07, 619.47 515.07, 625.68 524.25, 625.68 524.25, 619.47 529.38, 619.47 529.38, 634.5 540, 634.5 540, 664.38 506.25, 664.38 506.25, 675 495.945, 675 495.945, 661.86 482.805, 661.86 482.805, 675 472.5, 675 472.5, 664.38 445.5, 664.38 445.5, 675 418.5, 675 418.5, 664.38 391.5, 664.38 391.5, 675 364.5, 675 364.5, 664.38 337.5, 664.38 337.5, 675 310.5, 675 310.5, 664.38 283.5, 664.38 283.5, 675 256.5, 675 256.5, 664.38 229.5, 664.38 229.5, 675 202.5, 675 202.5, 664.38 175.5, 664.38 175.5, 675 148.5, 675 148.5, 664.38 121.5, 664.38 121.5, 675 94.5, 675 94.5, 664.38 67.5, 664.38 67.5, 675 57.195, 675 57.195, 661.86 44.055, 661.86 44.055, 675 33.75, 675 33.75, 664.38 0, 664.38 0, 634.5 10.62, 634.5 10.62, 619.47 15.749999999999998, 619.47 15.749999999999998, 625.68 24.93, 625.68 24.93, 619.47 34.11, 619.47 34.11, 609.03 24.93, 609.03 24.93, 602.82 15.749999999999998, 602.82 15.749999999999998, 609.03 10.62, 609.03 10.62, 594 0, 594 0, 567 10.62, 567 10.62, 540 0, 540 0, 513 10.62, 513 10.62, 486 0, 486 0, 459 10.62, 459 10.62, 432 0, 432 0, 405 10.62, 405 10.62, 378 0, 378 0, 351 10.62, 351 10.62, 324 0, 324 0, 297 10.62, 297 10.62, 270 0, 270 0, 243.00000000000003 10.62, 243.00000000000003 10.62, 216.00000000000003 0, 216.00000000000003 0, 189.00000000000003 10.62, 189.00000000000003 10.62, 162.00000000000003 0, 162.00000000000003 0, 135.00000000000003 10.62, 135.00000000000003 10.62, 108.00000000000003 0, 108.00000000000003 0, 81.00000000000003 10.62, 81.00000000000003 10.62, 65.97000000000003 15.749999999999998, 65.97000000000003 15.749999999999998, 72.18000000000002 24.93, 72.18000000000002 24.93, 65.97000000000003 34.11, 65.97000000000003 34.11, 55.53000000000002 24.93, 55.53000000000002 24.93, 49.32000000000002 15.749999999999998, 49.32000000000002 15.749999999999998, 55.53000000000002 10.62, 55.53000000000002 10.62, 40.500000000000014 0, 40.500000000000014 "/> 
</g>
<!-- Bottom--> 
<g transform="translate(562.5, 292.5) " > 
<polygon style="stroke:#0000ff; fill:none; stroke-width:0.9" points="0, 10.62 33.75, 10.62 33.75, 0 44.055, 0 44.055, 13.139999999999999 57.195, 13.139999999999999 57.195, 0 67.5, 0 67.5, 10.62 94.5, 10.62 94.5, 0 121.5, 0 121.5, 10.62 148.5, 10.62 148.5, 0 175.5, 0 175.5, 10.62 202.5, 10.62 202.5, 0 229.5, 0 229.5, 10.62 256.5, 10.62 256.5, 0 283.5, 0 283.5, 10.62 310.5, 10.62 310.5, 0 337.5, 0 337.5, 10.62 364.5, 10.62 364.5, 0 391.5, 0 391.5, 10.62 418.5, 10.62 418.5, 0 445.5, 0 445.5, 10.62 472.5, 10.62 472.5, 0 482.805, 0 482.805, 13.139999999999999 495.945, 13.139999999999999 495.945, 0 506.25, 0 506.25, 10.62 540, 10.62 540, 40.500000000000014 529.38, 40.500000000000014 529.38, 55.53000000000002 524.25, 55.53000000000002 524.25, 49.32000000000002 515.07, 49.32000000000002 515.07, 55.53000000000002 505.89, 55.53000000000002 505.89, 65.97000000000003 515.07, 65.97000000000003 515.07, 72.18000000000002 524.25, 72.18000000000002 524.25, 65.97000000000003 529.38, 65.97000000000003 529.38, 81.00000000000003 540, 81.00000000000003 540, 108.00000000000003 529.38, 108.00000000000003 529.38, 135.00000000000003 540, 135.00000000000003 540, 162.00000000000003 529.38, 162.00000000000003 529.38, 189.00000000000003 540, 189.00000000000003 540, 216.00000000000003 529.38, 216.00000000000003 529.38, 243.00000000000003 540, 243.00000000000003 540, 270 529.38, 270 529.38, 297 540, 297 540, 324 529.38, 324 529.38, 351 540, 351 540, 378 529.38, 378 529.38, 405 540, 405 540, 432 529.38, 432 529.38, 459 540, 459 540, 486 529.38, 486 529.38, 513 540, 513 540, 540 529.38, 540 529.38, 567 540, 567 540, 594 529.38, 594 529.38, 609.03 524.25, 609.03 524.25, 602.82 515.07, 602.82 515.07, 609.03 505.89, 609.03 505.89, 619.47 515.07, 619.47 515.07, 625.68 524.25, 625.68 524.25, 619.47 529.38, 619.47 529.38, 634.5 540, 634.5 540, 664.38 506.25, 664.38 506.25, 675 495.945, 675 495.945, 661.86 482.805, 661.86 482.805, 675 472.5, 675 472.5, 664.38 445.5, 664.38 445.5, 675 418.5, 675 418.5, 664.38 391.5, 664.38 391.5, 675 364.5, 675 364.5, 664.38 337.5, 664.38 337.5, 675 310.5, 675 310.5, 664.38 283.5, 664.38 283.5, 675 256.5, 675 256.5, 664.38 229.5, 664.38 229.5, 675 202.5, 675 202.5, 664.38 175.5, 664.38 175.5, 675 148.5, 675 148.5, 664.38 121.5, 664.38 121.5, 675 94.5, 675 94.5, 664.38 67.5, 664.38 67.5, 675 57.195, 675 57.195, 661.86 44.055, 661.86 44.055, 675 33.75, 675 33.75, 664.38 0, 664.38 0, 634.5 10.62, 634.5 10.62, 619.47 15.749999999999998, 619.47 15.749999999999998, 625.68 24.93, 625.68 24.93, 619.47 34.11, 619.47 34.11, 609.03 24.93, 609.03 24.93, 602.82 15.749999999999998, 602.82 15.749999999999998, 609.03 10.62, 609.03 10.62, 594 0, 594 0, 567 10.62, 567 10.62, 540 0, 540 0, 513 10.62, 513 10.62, 486 0, 486 0, 459 10.62, 459 10.62, 432 0, 432 0, 405 10.62, 405 10.62, 378 0, 378 0, 351 10.62, 351 10.62, 324 0, 324 0, 297 10.62, 297 10.62, 270 0, 270 0, 243.00000000000003 10.62, 243.00000000000003 10.62, 216.00000000000003 0, 216.00000000000003 0, 189.00000000000003 10.62, 189.00000000000003 10.62, 162.00000000000003 0, 162.00000000000003 0, 135.00000000000003 10.62, 135.00000000000003 10.62, 108.00000000000003 0, 108.00000000000003 0, 81.00000000000003 10.62, 81.00000000000003 10.62, 65.97000000000003 15.749999999999998, 65.97000000000003 15.749999999999998, 72.18000000000002 24.93, 72.18000000000002 24.93, 65.97000000000003 34.11, 65.97000000000003 34.11, 55.53000000000002 24.93, 55.53000000000002 24.93, 49.32000000000002 15.749999999999998, 49.32000000000002 15.749999999999998, 55.53000000000002 10.62, 55.53000000000002 10.62, 40.500000000000014 0, 40.500000000000014 "/> 
</g></svg>