<?xml version="1.0" encoding="utf-8"?>
<!-- Generator: Adobe Illustrator 18.0.0, SVG Export Plug-In . SVG Version: 6.00 Build 0)  -->
<!DOCTYPE svg PUBLIC "-//W3C//DTD SVG 1.1//EN" "http://www.w3.org/Graphics/SVG/1.1/DTD/svg11.dtd">
<svg version="1.1" id="Layer_1" xmlns="http://www.w3.org/2000/svg" xmlns:xlink="http://www.w3.org/1999/xlink" x="0px" y="0px"
	 viewBox="0 0 1440 792" enable-background="new 0 0 1440 792" xml:space="preserve">
<circle fill="none" stroke="#0000FF" stroke-width="2.834646e-02" stroke-miterlimit="10" cx="61.2" cy="748.8" r="5"/>
<circle fill="none" stroke="#0000FF" stroke-width="2.834646e-02" stroke-miterlimit="10" cx="406.8" cy="748.8" r="5"/>
<circle fill="none" stroke="#0000FF" stroke-width="2.834646e-02" stroke-miterlimit="10" cx="406.8" cy="583.2" r="5"/>
<circle fill="none" stroke="#0000FF" stroke-width="2.834646e-02" stroke-miterlimit="10" cx="61.2" cy="583.2" r="5"/>
<path fill="none" stroke="#0000FF" stroke-width="2.834646e-02" stroke-miterlimit="10" d="M375.1,751H88.6c-1.2,0-2.2-1-2.2-2.2
	v-54c0-1.2,1-2.2,2.2-2.2h286.6c1.2,0,2.2,1,2.2,2.2v54C377.3,750,376.3,751,375.1,751z"/>
<circle fill="none" stroke="#0000FF" stroke-width="2.834646e-02" stroke-miterlimit="10" cx="406.8" cy="676.8" r="5"/>
<circle fill="none" stroke="#0000FF" stroke-width="2.834646e-02" stroke-miterlimit="10" cx="61.2" cy="676.8" r="5"/>
<circle fill="none" stroke="#0000FF" stroke-width="2.834646e-02" stroke-miterlimit="10" cx="108" cy="663.1" r="9.9"/>
<circle fill="none" stroke="#0000FF" stroke-width="2.834646e-02" stroke-miterlimit="10" cx="144" cy="663.1" r="9.9"/>
<circle fill="none" stroke="#0000FF" stroke-width="2.834646e-02" stroke-miterlimit="10" cx="180" cy="663.1" r="9.9"/>
<circle fill="none" stroke="#0000FF" stroke-width="2.834646e-02" stroke-miterlimit="10" cx="216" cy="663.1" r="9.9"/>
<circle fill="none" stroke="#0000FF" stroke-width="2.834646e-02" stroke-miterlimit="10" cx="360" cy="663.1" r="9.9"/>
<circle fill="none" stroke="#0000FF" stroke-width="2.834646e-02" stroke-miterlimit="10" cx="324" cy="663.1" r="9.9"/>
<circle fill="none" stroke="#0000FF" stroke-width="2.834646e-02" stroke-miterlimit="10" cx="288" cy="663.1" r="9.9"/>
<circle fill="none" stroke="#0000FF" stroke-width="2.834646e-02" stroke-miterlimit="10" cx="252" cy="663.1" r="9.9"/>
<circle fill="none" stroke="#0000FF" stroke-width="2.834646e-02" stroke-miterlimit="10" cx="108" cy="619.9" r="9.9"/>
<circle fill="none" stroke="#0000FF" stroke-width="2.834646e-02" stroke-miterlimit="10" cx="144" cy="619.9" r="9.9"/>
<circle fill="none" stroke="#0000FF" stroke-width="2.834646e-02" stroke-miterlimit="10" cx="180" cy="619.9" r="9.9"/>
<circle fill="none" stroke="#0000FF" stroke-width="2.834646e-02" stroke-miterlimit="10" cx="216" cy="619.9" r="9.9"/>
<circle fill="none" stroke="#0000FF" stroke-width="2.834646e-02" stroke-miterlimit="10" cx="360" cy="619.9" r="9.9"/>
<circle fill="none" stroke="#0000FF" stroke-width="2.834646e-02" stroke-miterlimit="10" cx="324" cy="619.9" r="9.9"/>
<circle fill="none" stroke="#0000FF" stroke-width="2.834646e-02" stroke-miterlimit="10" cx="288" cy="619.9" r="9.9"/>
<circle fill="none" stroke="#0000FF" stroke-width="2.834646e-02" stroke-miterlimit="10" cx="252" cy="619.9" r="9.9"/>
<path fill="none" stroke="#FF0000" stroke-width="2.834646e-02" stroke-miterlimit="10" d="M373.9,756H89.7c-6.6,0-12-5.4-12-12
	V616.7c0-6.6,5.4-12,12-12h284.2c6.6,0,12,5.4,12,12V744C385.9,750.6,380.5,756,373.9,756z"/>
<circle fill="none" stroke="#0000FF" stroke-width="2.834646e-02" stroke-miterlimit="10" cx="61.2" cy="568.8" r="5"/>
<circle fill="none" stroke="#0000FF" stroke-width="2.834646e-02" stroke-miterlimit="10" cx="406.8" cy="568.8" r="5"/>
<circle fill="none" stroke="#0000FF" stroke-width="2.834646e-02" stroke-miterlimit="10" cx="406.8" cy="403.2" r="5"/>
<circle fill="none" stroke="#0000FF" stroke-width="2.834646e-02" stroke-miterlimit="10" cx="61.2" cy="403.2" r="5"/>
<path fill="none" stroke="#0000FF" stroke-width="2.834646e-02" stroke-miterlimit="10" d="M375.1,571H88.6c-1.2,0-2.2-1-2.2-2.2
	v-54c0-1.2,1-2.2,2.2-2.2h286.6c1.2,0,2.2,1,2.2,2.2v54C377.3,570,376.3,571,375.1,571z"/>
<circle fill="none" stroke="#0000FF" stroke-width="2.834646e-02" stroke-miterlimit="10" cx="406.8" cy="496.8" r="5"/>
<circle fill="none" stroke="#0000FF" stroke-width="2.834646e-02" stroke-miterlimit="10" cx="61.2" cy="496.8" r="5"/>
<circle fill="none" stroke="#0000FF" stroke-width="2.834646e-02" stroke-miterlimit="10" cx="108" cy="483.1" r="9.9"/>
<circle fill="none" stroke="#0000FF" stroke-width="2.834646e-02" stroke-miterlimit="10" cx="144" cy="483.1" r="9.9"/>
<circle fill="none" stroke="#0000FF" stroke-width="2.834646e-02" stroke-miterlimit="10" cx="180" cy="483.1" r="9.9"/>
<circle fill="none" stroke="#0000FF" stroke-width="2.834646e-02" stroke-miterlimit="10" cx="216" cy="483.1" r="9.9"/>
<circle fill="none" stroke="#0000FF" stroke-width="2.834646e-02" stroke-miterlimit="10" cx="360" cy="483.1" r="9.9"/>
<circle fill="none" stroke="#0000FF" stroke-width="2.834646e-02" stroke-miterlimit="10" cx="324" cy="483.1" r="9.9"/>
<circle fill="none" stroke="#0000FF" stroke-width="2.834646e-02" stroke-miterlimit="10" cx="288" cy="483.1" r="9.9"/>
<circle fill="none" stroke="#0000FF" stroke-width="2.834646e-02" stroke-miterlimit="10" cx="252" cy="483.1" r="9.9"/>
<circle fill="none" stroke="#0000FF" stroke-width="2.834646e-02" stroke-miterlimit="10" cx="108" cy="439.9" r="9.9"/>
<circle fill="none" stroke="#0000FF" stroke-width="2.834646e-02" stroke-miterlimit="10" cx="144" cy="439.9" r="9.9"/>
<circle fill="none" stroke="#0000FF" stroke-width="2.834646e-02" stroke-miterlimit="10" cx="180" cy="439.9" r="9.9"/>
<circle fill="none" stroke="#0000FF" stroke-width="2.834646e-02" stroke-miterlimit="10" cx="216" cy="439.9" r="9.9"/>
<circle fill="none" stroke="#0000FF" stroke-width="2.834646e-02" stroke-miterlimit="10" cx="360" cy="439.9" r="9.9"/>
<circle fill="none" stroke="#0000FF" stroke-width="2.834646e-02" stroke-miterlimit="10" cx="324" cy="439.9" r="9.9"/>
<circle fill="none" stroke="#0000FF" stroke-width="2.834646e-02" stroke-miterlimit="10" cx="288" cy="439.9" r="9.9"/>
<circle fill="none" stroke="#0000FF" stroke-width="2.834646e-02" stroke-miterlimit="10" cx="252" cy="439.9" r="9.9"/>
<path fill="none" stroke="#FF0000" stroke-width="2.834646e-02" stroke-miterlimit="10" d="M373.9,576H89.5c-6.6,0-12-5.4-12-12
	V436.7c0-6.6,5.4-12,12-12h284.3c6.6,0,12,5.4,12,12V564C385.9,570.6,380.5,576,373.9,576z"/>
<circle fill="none" stroke="#0000FF" stroke-width="2.834646e-02" stroke-miterlimit="10" cx="61.2" cy="388.8" r="5"/>
<circle fill="none" stroke="#0000FF" stroke-width="2.834646e-02" stroke-miterlimit="10" cx="61.2" cy="259.2" r="5"/>
<circle fill="none" stroke="#0000FF" stroke-width="2.834646e-02" stroke-miterlimit="10" cx="406.8" cy="388.8" r="5"/>
<circle fill="none" stroke="#0000FF" stroke-width="2.834646e-02" stroke-miterlimit="10" cx="406.8" cy="259.2" r="5"/>
<circle fill="none" stroke="#0000FF" stroke-width="2.834646e-02" stroke-miterlimit="10" cx="345.6" cy="280.8" r="9.9"/>
<path fill="none" stroke="#0000FF" stroke-width="2.834646e-02" stroke-miterlimit="10" d="M357.6,346.9h-24c-2,0-3.6-1.6-3.6-3.6
	v-9.8c0-2,1.6-3.6,3.6-3.6h24c2,0,3.6,1.6,3.6,3.6v9.8C361.2,345.3,359.6,346.9,357.6,346.9z"/>
<path fill="none" stroke="#0000FF" stroke-width="2.834646e-02" stroke-miterlimit="10" d="M274.8,346.9h-24c-2,0-3.6-1.6-3.6-3.6
	v-9.8c0-2,1.6-3.6,3.6-3.6h24c2,0,3.6,1.6,3.6,3.6v9.8C278.4,345.3,276.8,346.9,274.8,346.9z"/>
<path fill="none" stroke="#0000FF" stroke-width="2.834646e-02" stroke-miterlimit="10" d="M224.4,346.9h-24c-2,0-3.6-1.6-3.6-3.6
	v-9.8c0-2,1.6-3.6,3.6-3.6h24c2,0,3.6,1.6,3.6,3.6v9.8C228,345.3,226.4,346.9,224.4,346.9z"/>
<path fill="none" stroke="#0000FF" stroke-width="2.834646e-02" stroke-miterlimit="10" d="M174,346.9h-24c-2,0-3.6-1.6-3.6-3.6
	v-9.8c0-2,1.6-3.6,3.6-3.6h24c2,0,3.6,1.6,3.6,3.6v9.8C177.6,345.3,176,346.9,174,346.9z"/>
<path fill="none" stroke="#0000FF" stroke-width="2.834646e-02" stroke-miterlimit="10" d="M123.6,346.9h-24c-2,0-3.6-1.6-3.6-3.6
	v-9.8c0-2,1.6-3.6,3.6-3.6h24c2,0,3.6,1.6,3.6,3.6v9.8C127.2,345.3,125.6,346.9,123.6,346.9z"/>
<g>
	<path d="M111.5,350.8L111.5,350.8l-0.8,0.4l-0.1-0.5l1-0.5h0.5v4.7h-0.6V350.8z"/>
</g>
<g>
	<path d="M160.5,354.9v-0.4l0.5-0.5c1.2-1.1,1.7-1.7,1.7-2.4c0-0.5-0.2-0.9-0.9-0.9c-0.4,0-0.8,0.2-1,0.4l-0.2-0.4
		c0.3-0.3,0.8-0.5,1.3-0.5c1,0,1.4,0.7,1.4,1.4c0,0.9-0.6,1.6-1.6,2.5l-0.4,0.3v0h2.1v0.5H160.5z"/>
</g>
<g>
	<path d="M211,354.2c0.2,0.1,0.6,0.3,1,0.3c0.8,0,1.1-0.5,1.1-0.9c0-0.7-0.6-0.9-1.2-0.9h-0.4v-0.5h0.4c0.5,0,1-0.2,1-0.8
		c0-0.4-0.2-0.7-0.8-0.7c-0.4,0-0.7,0.2-0.9,0.3l-0.2-0.5c0.2-0.2,0.7-0.4,1.2-0.4c0.9,0,1.3,0.5,1.3,1.1c0,0.5-0.3,0.9-0.9,1.1v0
		c0.6,0.1,1,0.5,1,1.2c0,0.7-0.6,1.4-1.7,1.4c-0.5,0-1-0.2-1.2-0.3L211,354.2z"/>
</g>
<g>
	<path d="M263.2,354.9v-1.3h-2.2v-0.4l2.1-3h0.7v2.9h0.7v0.5h-0.7v1.3H263.2z M263.2,353.1v-1.6c0-0.2,0-0.5,0-0.7h0
		c-0.1,0.3-0.3,0.5-0.4,0.7l-1.1,1.6v0H263.2z"/>
</g>
<g>
	<path d="M342.5,350.1h2.6v0.5h-2v1.6h1.8v0.5h-1.8v2.2h-0.6V350.1z"/>
	<path d="M345.8,352.4c0-0.4,0-0.7,0-0.9h0.6l0,0.6h0c0.2-0.3,0.6-0.7,1.2-0.7c0.5,0,1.2,0.3,1.2,1.5v2.1h-0.6v-2c0-0.6-0.2-1-0.8-1
		c-0.4,0-0.7,0.3-0.9,0.6c0,0.1,0,0.2,0,0.3v2.1h-0.6V352.4z"/>
</g>
<g>
	<path d="M200.3,380.5c0,0.1,0,0.2-0.1,0.2s-0.1,0.1-0.2,0.2c-0.1,0.1-0.1,0.2-0.1,0.4c0,0.3,0,0.4,0,0.4c-0.2,1.9-0.3,3.7-0.3,5.4
		c0,0.9,0,1.3,0,1.3c0,0.6,0.2,1,0.4,1.1v0.1c0,0.1-0.1,0.1-0.2,0.1c-0.6,0-0.9-0.6-1-1.7c0-0.4,0-0.9,0-1.3l0.4-4.4
		c-0.3,1.2-0.7,2.4-1,3.6c-0.6,1.9-1.2,2.9-1.8,2.9c-0.3,0-0.5-0.2-0.8-0.5c-0.2-0.3-0.4-0.5-0.5-0.8c-0.3-0.7-0.6-1.7-0.9-3
		c-0.2-1-0.5-2-0.7-3l-0.1,0.2c-0.2,1.7-0.2,2.9-0.2,3.6l0.1,3.1c0,0.3,0.1,0.5,0.3,0.5c0,0.2-0.2,0.4-0.6,0.4
		c-0.4,0-0.6-0.7-0.6-2.2c0-0.7,0-1.7,0.1-3c0.1-1.3,0.1-2.3,0.1-3c0-0.1,0-0.3,0-0.3s0-0.1,0-0.1c0-0.4,0.4-0.5,1.1-0.5
		c0.1,0,0.3,0.1,0.5,0.3c0,0.3,0.1,0.7,0.1,1.2c0.1,0.8,0.4,1.9,0.8,3.5c0.5,1.9,0.9,2.8,1.3,2.8c0.4,0,0.9-0.8,1.4-2.5
		c0.3-1.1,0.6-2.2,0.8-3.2c0.1-0.3,0.3-0.8,0.4-1.5c0.1-0.4,0.4-0.6,0.9-0.6c0.1,0,0.2,0,0.4,0.1
		C200.3,380.3,200.3,380.4,200.3,380.5z"/>
	<path d="M204.9,384.5c0,0.3,0,0.7-0.1,1.2c-0.1,0.6-0.1,1-0.1,1.4c0,0.2,0,0.5,0,0.9c0,0.5,0,0.8,0,1c0,0.4,0,0.6-0.1,0.7
		c-0.1,0-0.1,0.1-0.2,0.1c-0.2,0-0.3-0.1-0.4-0.3c0-0.2-0.1-0.3-0.1-0.5c-0.3,0.4-0.7,0.7-1.3,0.8c-0.2,0-0.5-0.1-0.8-0.3
		c-0.3-0.2-0.5-0.4-0.6-0.7c-0.1-0.3-0.2-0.9-0.2-1.7v-2.9c-0.1-0.3,0.1-0.4,0.5-0.4c0.3,0,0.4,0.1,0.4,0.4c0,0.4,0,1,0,1.7
		c0,0.9,0,1.4,0,1.7c0,0.3,0.1,0.6,0.2,1c0.2,0.4,0.4,0.6,0.7,0.6c0.5,0,0.8-0.3,1.1-0.9c0.2-0.5,0.3-1,0.3-1.5v-1.8
		c0-0.1,0-0.2-0.1-0.3c0-0.1-0.1-0.2-0.1-0.3c0,0,0-0.1,0-0.1c0.1-0.1,0.3-0.2,0.4-0.2C204.7,383.9,204.9,384.1,204.9,384.5z"/>
	<path d="M208.2,385.2c-0.1,0.1-0.2,0.1-0.5,0.1c-0.3,0-0.5,0.1-0.5,0.1c0,0.1,0,0.6,0,1.5c0,0.7,0,1.2,0,1.4c0,0.1,0,0.3,0.1,0.5
		s0.1,0.4,0.1,0.5c0,0.1,0,0.1-0.1,0.2s-0.2,0.1-0.2,0.1c-0.2,0-0.3-0.2-0.4-0.6c-0.1-0.3-0.1-0.5-0.1-0.8c0-1.3,0-2.2,0-2.8
		c-0.1,0-0.3,0-0.6,0c-0.3,0-0.4-0.1-0.4-0.3c0-0.3,0.4-0.5,1.1-0.5l0.2-2.4c0,0,0-0.1,0-0.1s0-0.1,0-0.1c0-0.1,0-0.1,0.1-0.2
		c0.1,0,0.2-0.1,0.3-0.1c0.3,0,0.5,0.2,0.5,0.5c0,0.2,0,0.6-0.1,1c-0.1,0.5-0.1,0.8-0.1,1c0,0.1,0,0.2,0,0.3l0.7,0
		c0.3,0,0.4,0.1,0.4,0.3C208.4,385.1,208.3,385.2,208.2,385.2z"/>
	<path d="M212.5,388.2c0,0.4-0.3,0.8-0.8,1.1c-0.5,0.3-0.9,0.4-1.4,0.4c-1.2,0-1.8-0.8-1.8-2.3c0-0.7,0.1-1.4,0.4-2.2
		c0.3-1,0.7-1.5,1.2-1.5c0.4,0,0.9,0.2,1.4,0.7c0.5,0.4,0.8,0.9,0.8,1.3c0,0.6-0.2,1-0.7,1.5c-0.5,0.4-1,0.6-1.5,0.6
		c-0.1,0-0.2,0-0.3-0.1c-0.2-0.1-0.3-0.1-0.4-0.1c-0.1,0-0.2,0-0.2,0.1c0,1,0.3,1.6,1,1.6c0.4,0,0.7-0.1,1-0.4
		c0.2-0.1,0.4-0.3,0.6-0.6c0.2-0.2,0.3-0.3,0.3-0.3C212.4,387.8,212.5,387.9,212.5,388.2z M211.6,385.7c0-0.3-0.1-0.6-0.3-0.9
		c-0.2-0.3-0.4-0.4-0.7-0.4c-0.4,0-0.7,0.2-0.9,0.7c-0.2,0.4-0.3,0.8-0.3,1.2c0,0.3,0.1,0.5,0.2,0.7s0.4,0.3,0.6,0.3
		c0.4,0,0.7-0.2,0.9-0.5C211.5,386.4,211.6,386.1,211.6,385.7z"/>
	<path d="M219.2,387.1c0,0.3-0.1,0.5-0.2,0.7c-0.6,1.1-1.6,1.6-3.1,1.6c-0.5,0-1-0.1-1.7-0.3c0,0,0,0,0,0.1c0,0,0,0.1,0.1,0.3
		c0,0.1-0.1,0.2-0.2,0.2l-0.1-0.1c-0.2,0-0.3-0.1-0.3-0.3c0-0.3-0.1-0.4-0.1-0.5s-0.1-0.1-0.3-0.1c-0.1-0.1-0.2-0.1-0.2-0.2
		c0-0.1,0.1-0.2,0.2-0.2c0.1,0,0.2,0,0.2-0.1c0,0,0-0.1,0-0.2s0-0.4,0-0.7c0-0.3,0-0.6,0-0.8v-0.5c-0.2-0.1-0.3-0.1-0.3-0.3
		c0-0.1,0.1-0.2,0.3-0.3v-4.5c0-0.1,0.1-0.2,0.2-0.3s0.2-0.2,0.3-0.2c0.1,0,0.2,0,0.2,0c0.1,0.1,0.1,0.1,0.1,0.2
		c-0.1,0.8-0.2,1.4-0.2,1.8l0,0.1c0.6-1.6,1.5-2.4,2.7-2.4c0.7,0,1.2,0.3,1.6,0.8c0.3,0.5,0.5,1.1,0.5,1.8c0,0.5-0.1,1.1-0.4,1.6
		c-0.3,0.6-0.7,1-1.1,1.1C218.6,385.7,219.2,386.2,219.2,387.1z M218.5,387c0-0.5-0.5-0.8-1.4-1c-0.4-0.1-1.1-0.1-2-0.1
		c-0.4,0-0.7,0-0.9,0.1c0,0.3,0,0.9,0,1.8c0,0.2,0,0.4,0,0.6c0.4,0.3,1,0.4,1.7,0.4c0.6,0,1.1-0.2,1.7-0.5
		C218.2,388,218.5,387.6,218.5,387z M218.2,382.8c0-1.4-0.5-2-1.5-2c-0.7,0-1.3,0.4-1.8,1.3c-0.5,0.8-0.7,1.5-0.7,2.2v1.2
		c0,0,0.3,0,1,0c1,0,1.8-0.2,2.3-0.6C218,384.5,218.2,383.8,218.2,382.8z"/>
	<path d="M224.2,386.8c0,0.8-0.2,1.4-0.5,2c-0.4,0.7-1,1-1.7,1c-0.7,0-1.3-0.3-1.6-0.9c-0.3-0.5-0.4-1.1-0.4-1.9
		c0-0.8,0.2-1.5,0.5-2.3c0.4-0.9,1-1.4,1.6-1.4c0.2,0,0.4,0.1,0.7,0.3C223.7,384.4,224.2,385.4,224.2,386.8z M223.6,386.8
		c0-0.6-0.1-1.1-0.2-1.6c-0.2-0.6-0.6-1-1-1c-0.5,0-1,0.4-1.3,1.1c-0.2,0.5-0.4,1.1-0.4,1.8c0,0.6,0.1,1,0.2,1.4
		c0.2,0.5,0.6,0.8,1.1,0.8c0.5,0,0.9-0.3,1.2-0.9C223.5,388,223.6,387.4,223.6,386.8z"/>
	<path d="M229.2,389.3c0,0.1-0.1,0.2-0.2,0.2s-0.2,0.1-0.4,0.1c-0.4,0-0.8-0.3-1.2-0.9c-0.3-0.5-0.6-0.9-0.9-1.4
		c-0.5,0.5-1.1,1.5-1.8,3.1c-0.4-0.1-0.5-0.3-0.5-0.6c0-0.2,0.3-0.7,1-1.6c0.7-0.9,1-1.4,1-1.5c0-0.1-0.2-0.5-0.6-1.2
		c-0.4-0.7-0.7-1.1-0.8-1.2c0.1-0.2,0.3-0.4,0.6-0.4c0.2,0,0.3,0.1,0.4,0.2c0,0,0.1,0.2,0.3,0.6c0.2,0.5,0.4,0.9,0.6,1.3
		c0.3-0.4,0.7-0.9,1-1.3c0.5-0.7,0.9-1,1-1c0.1,0,0.2,0,0.3,0.1c0.1,0.1,0.1,0.2,0.1,0.3c0,0.1-0.3,0.5-1,1.2c-0.7,0.7-1,1.2-1,1.3
		c0,0.2,0.3,0.6,0.9,1.4c0.6,0.7,1,1.1,1.1,1.1c0,0,0.1,0,0.2,0V389.3z"/>
	<path d="M236.5,384.1c0.1,0.8-0.1,1.8-0.5,3.2c-0.4,1.5-0.8,2.3-1.3,2.3c-0.5,0-1-0.6-1.5-1.7c-0.3-0.7-0.5-1.5-0.7-2.5
		c-0.1-0.4-0.1-0.9-0.1-1.4c0-0.1,0-0.1,0.1-0.2c0.1-0.1,0.2-0.1,0.2-0.1c0.1,0,0.3,0.1,0.5,0.3c0,0.2-0.1,0.3-0.1,0.5
		c0,0.5,0.1,1.2,0.3,2c0.2,0.7,0.4,1.3,0.7,1.9c0.2,0.3,0.3,0.5,0.4,0.5c0.4,0,0.7-0.7,0.9-2.1c0.2-1.1,0.3-2,0.3-2.7
		c0-0.1,0-0.1,0.1-0.2c0.1-0.1,0.2-0.1,0.2-0.1C236.4,383.7,236.5,383.8,236.5,384.1z"/>
	<path d="M238.6,381.3c0,0-0.1,0.3-0.2,0.9c-0.2,1.2-0.3,2.1-0.3,2.7v2.8c0,0.8,0,1.2,0.1,1.4c0,0,0,0.1,0.1,0.1
		c0.1,0.1,0.1,0.1,0.1,0.2c0,0.2-0.1,0.2-0.2,0.2c-0.1,0-0.3-0.1-0.6-0.2c-0.1-0.2-0.1-0.3-0.1-0.4V383c0,0-0.1-0.1-0.2-0.2v-0.3
		c0-0.2,0.1-0.6,0.2-1.2c0.2-0.6,0.3-1,0.4-1c0.1,0,0.3,0.1,0.4,0.4C238.6,381,238.6,381.2,238.6,381.3z"/>
	<path d="M239.6,388.9c0-0.1,0-0.2,0.1-0.3c0.1-0.1,0.2-0.1,0.5-0.1c0.2,0,0.3,0.1,0.4,0.2s0.2,0.3,0.3,0.5c0.1,0.4,0.1,0.7,0.1,1
		c0,0.3-0.1,0.6-0.3,0.8c-0.2,0.3-0.3,0.5-0.5,0.6c-0.2,0.2-0.4,0.2-0.5,0.2c-0.1,0-0.2-0.1-0.2-0.2c0-0.1,0-0.2,0.2-0.3
		c0.2-0.1,0.3-0.3,0.5-0.4s0.3-0.3,0.4-0.5c0.1-0.2,0.1-0.4,0-0.6c-0.1-0.2-0.2-0.4-0.3-0.5c-0.2-0.1-0.3-0.2-0.4-0.2
		S239.6,389,239.6,388.9z"/>
	<path d="M250.6,383.8c0,1.4-0.3,2.7-0.9,3.8c-0.7,1.5-1.7,2.2-3,2.2c-0.5,0-0.9-0.2-1.3-0.5c-0.2,0.2-0.3,0.3-0.3,0.3
		c-0.1,0-0.2,0-0.3-0.1c-0.1-0.4-0.2-1-0.2-2c0-0.8,0-1.9,0-3.4c0-1.5,0-2.6,0-3.4c0,0,0-0.1,0-0.1c0,0,0-0.1,0-0.1
		c0-0.2,0.1-0.3,0.3-0.3c0.1,0,0.2,0,0.4,0.1c0.1,0.1,0.2,0.2,0.2,0.3c0,0.1,0,0.2-0.1,0.4c-0.1,0.2-0.1,0.3-0.1,0.4
		c0,0.3,0,0.5,0,0.5c0.1-0.1,0.3-0.3,0.5-0.7c0.2-0.4,0.4-0.7,0.6-0.8c0.3-0.3,0.8-0.4,1.3-0.4c1,0,1.7,0.4,2.2,1.2
		C250.4,382,250.6,382.8,250.6,383.8z M249.8,383.8c0-0.8-0.1-1.5-0.4-2c-0.3-0.8-0.8-1.1-1.5-1.1c-0.5,0-1,0.3-1.5,0.9
		c-0.4,0.5-0.7,1.1-0.9,1.6c-0.1,0.5-0.2,1.1-0.2,1.7v2.8c0,0.4,0.1,0.8,0.3,1.1c0.3,0.3,0.6,0.5,1,0.5c0.7,0,1.4-0.4,1.9-1.1
		c0.5-0.6,0.8-1.3,1-2.1C249.8,385.3,249.8,384.5,249.8,383.8z"/>
	<path d="M255.3,388.2c0,0.4-0.3,0.8-0.8,1.1c-0.5,0.3-0.9,0.4-1.4,0.4c-1.2,0-1.8-0.8-1.8-2.3c0-0.7,0.1-1.4,0.4-2.2
		c0.3-1,0.7-1.5,1.2-1.5c0.4,0,0.9,0.2,1.4,0.7c0.5,0.4,0.8,0.9,0.8,1.3c0,0.6-0.2,1-0.7,1.5c-0.5,0.4-1,0.6-1.5,0.6
		c-0.1,0-0.2,0-0.3-0.1c-0.2-0.1-0.3-0.1-0.4-0.1c-0.1,0-0.2,0-0.2,0.1c0,1,0.3,1.6,1,1.6c0.4,0,0.7-0.1,1-0.4
		c0.2-0.1,0.4-0.3,0.6-0.6c0.2-0.2,0.3-0.3,0.3-0.3C255.2,387.8,255.3,387.9,255.3,388.2z M254.4,385.7c0-0.3-0.1-0.6-0.3-0.9
		c-0.2-0.3-0.4-0.4-0.7-0.4c-0.4,0-0.7,0.2-0.9,0.7c-0.2,0.4-0.3,0.8-0.3,1.2c0,0.3,0.1,0.5,0.2,0.7s0.4,0.3,0.6,0.3
		c0.4,0,0.7-0.2,0.9-0.5C254.3,386.4,254.4,386.1,254.4,385.7z"/>
	<path d="M259.9,388.7c0,0.3-0.2,0.6-0.7,0.8c-0.4,0.2-0.8,0.3-1.1,0.3c-0.2,0-0.5-0.1-0.8-0.2c-0.2-0.1-0.4-0.3-0.8-0.6
		c-0.4-0.3-0.6-0.6-0.6-0.7c0-0.3,0.2-0.4,0.5-0.4h0.1c0,0.3,0.3,0.6,0.9,0.9c0.5,0.3,0.9,0.4,1.2,0.4c0.4,0,0.6-0.1,0.6-0.4
		c0-0.2-0.2-0.4-0.7-0.7c-0.7-0.4-1.1-0.7-1.4-0.9c-0.5-0.5-0.7-1-0.7-1.7c0-0.5,0.1-0.9,0.4-1.3c0.3-0.5,0.6-0.8,1.1-0.8
		c0.3,0,0.7,0.1,1.1,0.4c0.4,0.3,0.7,0.6,0.8,0.9c0.1,0.2,0.1,0.5,0.1,0.9c0,0.4-0.1,0.7-0.2,1.1c-0.1,0.1-0.2,0.1-0.3,0.1
		c-0.1,0-0.2,0-0.3-0.1c-0.1,0-0.2-0.1-0.2-0.2c0,0,0-0.1,0.1-0.3c0.1-0.2,0.1-0.4,0.1-0.8c0-1-0.3-1.4-0.9-1.4
		c-0.3,0-0.6,0.2-0.8,0.6c-0.2,0.3-0.2,0.7-0.2,1c0,0.4,0.3,0.9,0.8,1.3c0.2,0.1,0.6,0.5,1.4,0.9
		C259.6,388.3,259.9,388.5,259.9,388.7z"/>
	<path d="M261.6,384.2c0,0.2,0,0.4-0.1,0.7c-0.1,0.3-0.1,0.6-0.1,0.7v3c0,0.2,0,0.5,0.1,0.8c0,0.1-0.1,0.1-0.1,0.1
		c-0.4,0-0.7-0.2-0.7-0.6v-5c0.1-0.1,0.2-0.1,0.3-0.1c0.1,0,0.2,0,0.3,0.1C261.6,384.1,261.6,384.1,261.6,384.2z M261.9,382.2
		c0,0.3-0.1,0.5-0.4,0.5c-0.2,0-0.3-0.1-0.5-0.2c-0.1-0.1-0.2-0.3-0.2-0.4c0-0.3,0.2-0.5,0.5-0.5c0.2,0,0.3,0.1,0.5,0.2
		S261.9,382,261.9,382.2z"/>
	<path d="M266.5,385.5c0,0.1,0,0.1,0,0.2c-0.2,0.9-0.3,1.6-0.3,2.2c0,0.3,0,0.7,0,1.3c0,0.6,0,1,0,1.3c0,0.6,0,1-0.1,1.2
		c-0.1,0.3-0.3,0.5-0.6,0.7c-0.3,0.2-0.6,0.3-0.9,0.3c-0.4,0-0.8-0.1-1.3-0.2c-0.6-0.2-0.9-0.4-0.9-0.7c0-0.2,0.1-0.4,0.3-0.4
		c0.1,0,0.2,0.1,0.2,0.2c0.1,0.2,0.1,0.2,0.2,0.3c0.1,0.1,0.3,0.1,0.6,0.2c0.3,0.1,0.5,0.1,0.6,0.1c0.5,0,0.9-0.2,1.1-0.6
		c0.2-0.3,0.3-0.8,0.3-1.3c0-0.6,0-1-0.1-1.4c-0.4,0.6-0.9,0.9-1.6,0.9c-0.2,0-0.4-0.1-0.6-0.2c-0.2-0.1-0.4-0.3-0.5-0.4
		c-0.2-0.3-0.4-0.7-0.4-1.4c0-0.8,0.1-1.6,0.4-2.5c0.4-1.1,0.8-1.7,1.4-1.7c0.5,0,1,0.4,1.5,1.3c0.1,0.1,0.1,0.2,0.3,0.4
		C266.1,385.2,266.3,385.3,266.5,385.5z M265.7,386.2c0-0.2-0.1-0.3-0.2-0.5c0-0.4-0.1-0.7-0.3-1c-0.2-0.3-0.5-0.5-0.8-0.5
		c-0.2,0-0.5,0.3-0.7,0.8c-0.2,0.4-0.3,0.8-0.4,1.2c-0.1,0.5-0.1,1-0.1,1.4c0,1.1,0.3,1.7,1,1.7c0.5,0,0.9-0.4,1.2-1.2
		C265.6,387.4,265.7,386.8,265.7,386.2z"/>
	<path d="M271.6,389.6c-0.1,0.1-0.1,0.1-0.2,0.1s-0.2-0.1-0.5-0.2v-0.1c0-0.1,0-0.2,0-0.4s0-0.3,0-0.4c0-3-0.4-4.5-1.1-4.5
		c-0.2,0-0.5,0.2-0.8,0.5c-0.7,0.8-1,1.9-1,3.2c0,0.2,0,0.4,0.1,0.8c0,0.3,0.1,0.6,0.1,0.7c0,0.1-0.1,0.2-0.3,0.2
		c-0.3,0-0.5-0.3-0.5-0.9v-3.1c0-0.1,0-0.2,0-0.4s0-0.3,0-0.4c0-0.1,0-0.3,0-0.5c0-0.2,0-0.4,0-0.5c0-0.1,0.1-0.2,0.2-0.2
		c0.1-0.1,0.2-0.1,0.3-0.1c0.1,0,0.2,0.1,0.3,0.2c0,0.6,0,0.9,0,1c0,0.1,0,0.3,0,0.4c0.1,0,0.2-0.2,0.3-0.4c0.2-0.3,0.3-0.6,0.4-0.7
		c0.2-0.3,0.5-0.4,0.7-0.4c0.1,0,0.3,0,0.5,0.1c0.5,0.2,0.8,0.5,1,0.9c0.4,0.7,0.5,1.7,0.5,2.8V389.6z"/>
	<path d="M276.3,388.2c0,0.4-0.3,0.8-0.8,1.1c-0.5,0.3-0.9,0.4-1.4,0.4c-1.2,0-1.8-0.8-1.8-2.3c0-0.7,0.1-1.4,0.4-2.2
		c0.3-1,0.7-1.5,1.2-1.5c0.4,0,0.9,0.2,1.4,0.7c0.5,0.4,0.8,0.9,0.8,1.3c0,0.6-0.2,1-0.7,1.5c-0.5,0.4-1,0.6-1.5,0.6
		c-0.1,0-0.2,0-0.3-0.1c-0.2-0.1-0.3-0.1-0.4-0.1c-0.1,0-0.2,0-0.2,0.1c0,1,0.3,1.6,1,1.6c0.4,0,0.7-0.1,1-0.4
		c0.2-0.1,0.4-0.3,0.6-0.6c0.2-0.2,0.3-0.3,0.3-0.3C276.2,387.8,276.3,387.9,276.3,388.2z M275.4,385.7c0-0.3-0.1-0.6-0.3-0.9
		c-0.2-0.3-0.4-0.4-0.7-0.4c-0.4,0-0.7,0.2-0.9,0.7c-0.2,0.4-0.3,0.8-0.3,1.2c0,0.3,0.1,0.5,0.2,0.7s0.4,0.3,0.6,0.3
		c0.4,0,0.7-0.2,0.9-0.5C275.3,386.4,275.4,386.1,275.4,385.7z"/>
	<path d="M281.2,380.9c0,0.2,0,0.5-0.1,0.8c-0.1,0.4-0.1,0.7-0.1,0.8c0,0.3-0.1,1.2-0.1,2.8c-0.1,1.4-0.1,2.2-0.1,2.4
		c0,1,0.1,1.6,0.3,2c-0.1,0.1-0.1,0.1-0.2,0.1c-0.1,0-0.2,0-0.3-0.1c-0.1-0.1-0.2-0.2-0.2-0.3c0-0.2,0-0.5-0.1-0.8
		c-0.5,0.7-1,1-1.5,1c-0.6,0-1-0.2-1.3-0.7c-0.3-0.4-0.4-0.9-0.4-1.5c0-0.8,0.1-1.5,0.4-2.3c0.4-1.1,0.8-1.6,1.4-1.6
		c0.3,0,0.5,0.1,0.8,0.3c0.1,0,0.3,0.2,0.6,0.6c0.1-0.6,0.1-2,0.1-4c0.1-0.1,0.1-0.1,0.3-0.1c0.2,0,0.3,0.1,0.4,0.2
		C281.1,380.6,281.2,380.7,281.2,380.9z M280.2,385.9c0-0.4-0.1-0.8-0.3-1.1c-0.2-0.4-0.5-0.6-0.9-0.6c-0.5,0-0.8,0.5-1.1,1.4
		c-0.2,0.7-0.3,1.3-0.3,2c0,0.4,0.1,0.7,0.2,1c0.2,0.4,0.4,0.6,0.8,0.6c0.6,0,1-0.4,1.3-1.3C280.1,387.3,280.2,386.6,280.2,385.9z"
		/>
	<path d="M292.4,389.5c0,0.1-0.1,0.2-0.4,0.4c-0.2,0.1-0.4,0.1-0.5,0.1c-0.4,0-0.8-0.1-1.2-0.4c-0.4-0.3-0.7-0.4-0.7-0.4
		c-1.1,0.5-2,0.7-2.8,0.7c-0.6,0-1.1-0.1-1.5-0.4c-0.5-0.3-0.7-0.8-0.7-1.3c0-0.6,0.4-1.3,1.3-2.3c0.1-0.1,0.2-0.2,0.3-0.3
		c-0.3-0.6-0.5-1-0.6-1.2c-0.2-0.4-0.2-0.9-0.2-1.3c0-0.7,0.2-1.3,0.6-1.8c0.4-0.5,1-0.7,1.7-0.7c0.5,0,0.9,0.2,1.3,0.5
		c0.3,0.3,0.5,0.8,0.5,1.3c0,0.3,0,0.5-0.1,0.7c-0.1,0.4-0.9,1.3-2.3,2.8c0,0.2,0.4,0.7,1.2,1.5c0.8,0.8,1.2,1.2,1.4,1.2
		c0.2,0,0.4-0.2,0.9-0.5c0.4-0.3,0.6-0.5,0.6-0.7c0-0.2-0.2-0.3-0.7-0.5c-0.4-0.1-0.7-0.2-0.9-0.2s-0.5,0.1-0.7,0.2
		c-0.1-0.1-0.2-0.1-0.2-0.3c0-0.3,0.2-0.4,0.6-0.4c1.9,0,2.8,0.2,2.8,0.7c0,0.6-0.6,1.3-1.8,2c0.1,0.2,0.3,0.3,0.6,0.5
		s0.5,0.2,0.7,0.2c0.1,0,0.2,0,0.3-0.1c0.1-0.1,0.2-0.1,0.3-0.1c0,0,0.1,0,0.2,0.1V389.5z M289,388.6c-0.8-0.7-1.6-1.5-2.4-2.4
		c-0.8,0.8-1.1,1.6-1.1,2.2c0,0.3,0.1,0.6,0.4,0.7c0.2,0.1,0.4,0.1,0.8,0.1c0.3,0,0.7-0.1,1.2-0.2
		C288.6,388.9,288.9,388.7,289,388.6z M288.9,381.9c0-0.3-0.1-0.5-0.3-0.7c-0.2-0.2-0.4-0.3-0.7-0.3c-0.5,0-0.9,0.2-1.3,0.6
		c-0.4,0.4-0.5,0.9-0.5,1.4c0,0.3,0.1,0.7,0.2,1.1c0.1,0.5,0.3,0.8,0.5,1c0.5-0.4,1-0.8,1.4-1.4
		C288.6,382.9,288.9,382.4,288.9,381.9z"/>
	<path d="M299.8,386.5c0,0.8-0.1,1.4-0.3,2c-0.3,0.7-0.8,1.1-1.5,1.1c-0.2,0-0.4,0-0.7-0.1c-0.2-0.1-0.5-0.2-0.7-0.2
		c0,0.1,0,0.1,0,0.2c0,0,0,0.1,0,0.2c0,0.1,0,0.2,0,0.2c0,0.1-0.1,0.2-0.2,0.2c-0.2,0-0.3-0.1-0.4-0.2c-0.1-0.1-0.1-0.3-0.1-0.8
		c0-0.4,0-0.7,0-0.9V388l0.3-7.5h0.2c0.1,0,0.2,0.1,0.4,0.2c0.1,0.1,0.2,0.3,0.2,0.4c0,0.3,0,0.8-0.1,1.5c-0.1,0.7-0.1,1.2-0.1,1.5
		c0,0,0,0.2,0,0.5c0.1,0,0.2-0.1,0.3-0.3c0.1-0.2,0.3-0.4,0.4-0.5c0.2-0.2,0.4-0.2,0.7-0.2c0.4,0,0.8,0.2,1.2,0.5
		c0.3,0.3,0.5,0.7,0.6,1.2C299.8,385.6,299.8,386,299.8,386.5z M299.1,386.6c0-0.6-0.1-1-0.2-1.4c-0.2-0.6-0.5-0.9-0.9-0.9
		c-0.5,0-0.9,0.4-1.2,1.1c-0.2,0.6-0.3,1.2-0.3,1.7c0,0.5,0.1,1,0.3,1.3c0.2,0.5,0.6,0.7,1,0.7s0.8-0.3,1-1
		C299,387.7,299.1,387.2,299.1,386.6z"/>
	<path d="M304.6,384.5c0,0.3,0,0.7-0.1,1.2c-0.1,0.6-0.1,1-0.1,1.4c0,0.2,0,0.5,0,0.9c0,0.5,0,0.8,0,1c0,0.4,0,0.6-0.1,0.7
		c-0.1,0-0.1,0.1-0.2,0.1c-0.2,0-0.3-0.1-0.4-0.3c0-0.2-0.1-0.3-0.1-0.5c-0.3,0.4-0.7,0.7-1.3,0.8c-0.2,0-0.5-0.1-0.8-0.3
		c-0.3-0.2-0.5-0.4-0.6-0.7c-0.1-0.3-0.2-0.9-0.2-1.7v-2.9c-0.1-0.3,0.1-0.4,0.5-0.4c0.3,0,0.4,0.1,0.4,0.4c0,0.4,0,1,0,1.7
		c0,0.9,0,1.4,0,1.7c0,0.3,0.1,0.6,0.2,1c0.2,0.4,0.4,0.6,0.7,0.6c0.5,0,0.8-0.3,1.1-0.9c0.2-0.5,0.3-1,0.3-1.5v-1.8
		c0-0.1,0-0.2-0.1-0.3c0-0.1-0.1-0.2-0.1-0.3c0,0,0-0.1,0-0.1c0.1-0.1,0.3-0.2,0.4-0.2C304.4,383.9,304.6,384.1,304.6,384.5z"/>
	<path d="M306.5,384.2c0,0.2,0,0.4-0.1,0.7c-0.1,0.3-0.1,0.6-0.1,0.7v3c0,0.2,0,0.5,0.1,0.8c0,0.1-0.1,0.1-0.1,0.1
		c-0.4,0-0.7-0.2-0.7-0.6v-5c0.1-0.1,0.2-0.1,0.3-0.1c0.1,0,0.2,0,0.3,0.1C306.4,384.1,306.5,384.1,306.5,384.2z M306.7,382.2
		c0,0.3-0.1,0.5-0.4,0.5c-0.2,0-0.3-0.1-0.5-0.2c-0.1-0.1-0.2-0.3-0.2-0.4c0-0.3,0.2-0.5,0.5-0.5c0.2,0,0.3,0.1,0.5,0.2
		S306.7,382,306.7,382.2z"/>
	<path d="M308.4,389.4c0,0.2-0.1,0.4-0.4,0.4c-0.4,0-0.6-0.8-0.6-2.4l0-6.1c0-0.1,0-0.2,0-0.4s0-0.3,0-0.4c0.2-0.1,0.3-0.2,0.4-0.2
		c0.1,0,0.3,0,0.4,0.1s0.2,0.2,0.2,0.3c0,0.1,0,0.2-0.1,0.4c-0.1,0.2-0.1,0.3-0.1,0.3c-0.1,0.6-0.2,1.5-0.2,2.6c0,1.8,0,2.6,0,2.6
		c0,1.1,0.1,1.9,0.2,2.5c0,0,0,0.1,0.1,0.2C308.4,389.2,308.4,389.3,308.4,389.4z"/>
	<path d="M311.5,385.2c-0.1,0.1-0.2,0.1-0.5,0.1c-0.3,0-0.5,0.1-0.5,0.1c0,0.1,0,0.6,0,1.5c0,0.7,0,1.2,0,1.4c0,0.1,0,0.3,0.1,0.5
		s0.1,0.4,0.1,0.5c0,0.1,0,0.1-0.1,0.2s-0.2,0.1-0.2,0.1c-0.2,0-0.3-0.2-0.4-0.6c-0.1-0.3-0.1-0.5-0.1-0.8c0-1.3,0-2.2,0-2.8
		c-0.1,0-0.3,0-0.6,0c-0.3,0-0.4-0.1-0.4-0.3c0-0.3,0.4-0.5,1.1-0.5l0.2-2.4c0,0,0-0.1,0-0.1s0-0.1,0-0.1c0-0.1,0-0.1,0.1-0.2
		c0.1,0,0.2-0.1,0.3-0.1c0.3,0,0.5,0.2,0.5,0.5c0,0.2,0,0.6-0.1,1c-0.1,0.5-0.1,0.8-0.1,1c0,0.1,0,0.2,0,0.3l0.7,0
		c0.3,0,0.4,0.1,0.4,0.3C311.6,385.1,311.6,385.2,311.5,385.2z"/>
	<path d="M319.1,386.5c0,0.8-0.1,1.4-0.3,2c-0.3,0.7-0.8,1.1-1.5,1.1c-0.2,0-0.4,0-0.7-0.1c-0.2-0.1-0.5-0.2-0.7-0.2
		c0,0.1,0,0.1,0,0.2c0,0,0,0.1,0,0.2c0,0.1,0,0.2,0,0.2c0,0.1-0.1,0.2-0.2,0.2c-0.2,0-0.3-0.1-0.4-0.2c-0.1-0.1-0.1-0.3-0.1-0.8
		c0-0.4,0-0.7,0-0.9V388l0.3-7.5h0.2c0.1,0,0.2,0.1,0.4,0.2c0.1,0.1,0.2,0.3,0.2,0.4c0,0.3,0,0.8-0.1,1.5c-0.1,0.7-0.1,1.2-0.1,1.5
		c0,0,0,0.2,0,0.5c0.1,0,0.2-0.1,0.3-0.3c0.1-0.2,0.3-0.4,0.4-0.5c0.2-0.2,0.4-0.2,0.7-0.2c0.4,0,0.8,0.2,1.2,0.5
		c0.3,0.3,0.5,0.7,0.6,1.2C319.1,385.6,319.1,386,319.1,386.5z M318.4,386.6c0-0.6-0.1-1-0.2-1.4c-0.2-0.6-0.5-0.9-0.9-0.9
		c-0.5,0-0.9,0.4-1.2,1.1c-0.2,0.6-0.3,1.2-0.3,1.7c0,0.5,0.1,1,0.3,1.3c0.2,0.5,0.6,0.7,1,0.7s0.8-0.3,1-1
		C318.3,387.7,318.4,387.2,318.4,386.6z"/>
	<path d="M323.9,384.2c-0.1,0.4-0.1,0.8-0.2,1.2c-0.1,0.4-0.1,0.8-0.1,1.2v4.2c0,0.6-0.2,1.1-0.5,1.4c-0.4,0.4-0.9,0.5-1.5,0.5
		c-0.3,0-0.7-0.1-1.1-0.3c-0.5-0.2-0.8-0.4-1-0.7c0-0.1-0.1-0.2-0.1-0.2c0-0.3,0.1-0.4,0.4-0.4c0.1,0,0.1,0,0.2,0.1
		c0.2,0.2,0.3,0.3,0.5,0.5c0.3,0.3,0.7,0.4,1.2,0.4c0.6,0,1-0.2,1.2-0.6c0.1-0.3,0.2-0.7,0.2-1.4c0-0.1,0-0.3-0.1-0.5
		c0-0.2,0-0.4,0-0.6c-0.3,0.2-0.4,0.4-0.5,0.4c-0.2,0.1-0.4,0.2-0.6,0.2c-0.6,0-1.1-0.2-1.4-0.7c-0.3-0.4-0.4-0.9-0.4-1.6
		c0-1.2,0-2.2,0.1-3.1c0-0.3,0.2-0.4,0.5-0.4c0.3,0,0.5,0.1,0.5,0.2c-0.2,0.5-0.3,1.5-0.3,3.1c0,1.3,0.4,1.9,1.1,1.9
		c0.4,0,0.8-0.3,1-1c0.2-0.5,0.3-1,0.3-1.6v-1.5c0-0.2,0-0.3,0-0.6c0-0.2,0.2-0.3,0.4-0.3C323.8,383.9,323.9,384,323.9,384.2z"/>
	<path d="M333.2,388.9c0,0.1-0.1,0.1-0.2,0.1c0,0-0.1,0-0.2,0s-0.1,0-0.2,0c-0.4,0-0.9,0.1-1.7,0.4c-0.7,0.2-1.3,0.4-1.7,0.4
		c-1.3,0-1.9-1.1-1.9-3.2c0-1.7,0-3.1,0.1-4.3l0-0.4c0-0.1,0-0.2,0-0.3s0-0.2,0-0.2c0-0.2,0.1-0.3,0.4-0.4c0.3,0,1-0.2,2-0.4
		c0.9-0.2,1.5-0.3,1.9-0.3c0,0,0.1,0,0.2,0c0.1,0,0.3,0,0.4,0.1c0.1,0.1,0.2,0.2,0.2,0.3c0,0.2-0.2,0.3-0.7,0.3
		c-0.4,0-1,0.1-1.8,0.2c-0.9,0.2-1.5,0.3-1.7,0.5c-0.1,0.7-0.2,1.8-0.3,3.2c0,0,0.1,0.1,0.1,0.1c0.3,0,0.7-0.1,1.2-0.3
		c0.5-0.2,0.9-0.3,1.2-0.3c0.2,0,0.4,0.1,0.7,0.2l0.1,0.4c0,0-0.1,0.1-0.4,0.2c-0.1-0.1-0.3-0.1-0.5-0.1c-0.2,0-0.7,0.1-1.3,0.2
		s-1.1,0.3-1.3,0.4c0,0.2-0.1,0.7-0.1,1.4c0,1.4,0.3,2,1,2c0.3,0,0.8-0.1,1.4-0.3c0.6-0.2,1.1-0.3,1.4-0.3
		C332.7,388.4,333,388.6,333.2,388.9z"/>
	<path d="M336.7,384.7c0,0,0,0.1,0,0.2c-0.1,0.2-0.2,0.3-0.3,0.3c-0.1,0-0.1,0-0.2-0.1c0-0.6-0.3-0.9-0.7-0.9
		c-0.3,0-0.6,0.5-0.9,1.6c-0.1,0.4-0.2,0.9-0.2,1.6c0,0.8,0,1.3,0.1,1.5c0,0,0,0.1,0.1,0.2s0.1,0.2,0.1,0.2c0,0.2-0.1,0.3-0.4,0.3
		c-0.3,0-0.5-0.2-0.5-0.5c0,0,0-0.1,0-0.2c0-0.1,0-0.2,0-0.2c0-0.5,0-1.2-0.1-2.2s-0.1-1.7-0.1-2.2c0-0.2,0-0.3,0.1-0.3
		c0.1,0,0.2-0.1,0.4-0.1c0.2,0,0.4,0.1,0.4,0.2c0,0.2,0,0.4,0,0.5c0.2-0.4,0.4-0.6,0.4-0.6c0.2-0.2,0.4-0.3,0.6-0.3
		c0.2,0,0.3,0,0.5,0.1c0.1,0.1,0.2,0.2,0.4,0.4S336.7,384.6,336.7,384.7z"/>
	<path d="M340.8,389.9c0,0.1-0.1,0.2-0.3,0.2c-0.2,0-0.3-0.1-0.4-0.3c0,0,0-0.2,0-0.5c0-0.1,0-0.2,0-0.2c-0.5,0.4-1,0.6-1.6,0.6
		c-0.4,0-0.8-0.1-1.2-0.3c-0.4-0.3-0.6-0.6-0.6-0.9c0-0.4,0.3-0.7,0.8-1.1c0.5-0.3,0.9-0.5,1.3-0.5h1.3c0.1-0.1,0.1-0.1,0.1-0.3
		c0-0.6,0-1.1-0.1-1.4c-0.2-0.5-0.5-0.8-1-0.8c-0.3,0-0.7,0.2-0.9,0.6c-0.3,0.4-0.4,0.8-0.4,1.1c0,0,0,0,0,0.1s0,0.1,0,0.1
		c0,0.1,0,0.1-0.1,0.1c-0.1,0-0.2-0.1-0.3-0.2c-0.1-0.1-0.2-0.2-0.2-0.3c0-0.3,0.1-0.6,0.2-1c0.2-0.4,0.3-0.7,0.5-0.9
		c0.2-0.2,0.5-0.4,0.8-0.4c0.5,0,1,0.2,1.4,0.5c0.5,0.4,0.7,0.8,0.7,1.3L340.8,389.9z M340.1,387.7c0-0.4-0.3-0.5-0.8-0.5
		c-0.4,0-0.8,0.1-1.2,0.2c-0.4,0.2-0.6,0.5-0.6,0.9c0,0.2,0.1,0.4,0.3,0.6c0.2,0.1,0.4,0.2,0.7,0.2c0.4,0,0.8-0.1,1.1-0.4
		C339.9,388.4,340.1,388.1,340.1,387.7z"/>
	<path d="M346.1,389.6c-0.1,0.1-0.1,0.1-0.2,0.1s-0.2-0.1-0.5-0.2v-0.1c0-0.1,0-0.2,0-0.4s0-0.3,0-0.4c0-3-0.4-4.5-1.1-4.5
		c-0.2,0-0.5,0.2-0.8,0.5c-0.7,0.8-1,1.9-1,3.2c0,0.2,0,0.4,0.1,0.8c0,0.3,0.1,0.6,0.1,0.7c0,0.1-0.1,0.2-0.3,0.2
		c-0.3,0-0.5-0.3-0.5-0.9v-3.1c0-0.1,0-0.2,0-0.4s0-0.3,0-0.4c0-0.1,0-0.3,0-0.5c0-0.2,0-0.4,0-0.5c0-0.1,0.1-0.2,0.2-0.2
		c0.1-0.1,0.2-0.1,0.3-0.1c0.1,0,0.2,0.1,0.3,0.2c0,0.6,0,0.9,0,1c0,0.1,0,0.3,0,0.4c0.1,0,0.2-0.2,0.3-0.4c0.2-0.3,0.3-0.6,0.4-0.7
		c0.2-0.3,0.5-0.4,0.7-0.4c0.1,0,0.3,0,0.5,0.1c0.5,0.2,0.8,0.5,1,0.9c0.4,0.7,0.5,1.7,0.5,2.8V389.6z"/>
	<path d="M356.4,389.4L356.4,389.4c-0.1,0.2-0.1,0.2-0.2,0.2c-0.1,0-0.2,0-0.2-0.1c-0.1-0.4-0.7-1-1.8-1.8c-1.1-0.8-1.9-1.2-2.3-1.2
		H351v0.8c0,0.1,0,0.4,0.1,0.8c0.1,0.5,0.1,0.7,0.1,0.7c0.2,0.2,0.2,0.4,0.2,0.3c0,0.2-0.1,0.3-0.4,0.3c-0.3,0-0.5-0.1-0.6-0.3
		c-0.1-0.2-0.2-1.1-0.2-2.6c0-0.1-0.2-0.2-0.5-0.3c-0.3-0.1-0.5-0.2-0.5-0.4c0-0.2,0.3-0.4,0.9-0.5c0.1-0.3,0.1-0.8,0.1-1.3
		c0-0.7,0.1-1.1,0.1-1.3c0-0.1,0-0.4,0.1-0.8c0.1-0.3,0.1-0.6,0.1-0.8c0,0-0.2,0-0.4,0c-0.2,0-0.3-0.1-0.3-0.2
		c0-0.2,0.1-0.3,0.3-0.4c0.1,0,0.3-0.1,0.4-0.1c0-0.1,0.1-0.2,0.2-0.3c0.1,0,0.2,0,0.2,0c0.1,0,0.2,0,0.3,0.1
		c0.1,0.1,0.2,0.1,0.3,0.1c0,0,0.1,0,0.2,0c0.1,0,0.1,0,0.2,0c1,0,1.8,0.2,2.5,0.6c0.8,0.5,1.3,1.2,1.3,2.1c0,0.8-0.2,1.4-0.7,1.9
		c-0.3,0.3-0.8,0.7-1.7,1.1c-0.1,0-0.1,0-0.2,0.1c0.2,0.2,0.6,0.5,1.2,0.9c0.6,0.4,1.1,0.8,1.4,1C356.2,388.6,356.4,389,356.4,389.4
		z M355.1,383.1c0-0.7-0.3-1.2-0.9-1.6c-0.5-0.3-1.1-0.5-1.9-0.5c-0.3,0-0.5,0-0.6,0.1l-0.2,0.3c-0.1,0.2-0.2,0.5-0.2,0.8
		c0,0.5,0,0.8-0.1,0.9c-0.1,0.5-0.2,1.3-0.2,2.4c0.7,0.3,1.1,0.4,1.2,0.4c0.1,0,0.3,0,0.5-0.1c0.7-0.2,1.2-0.5,1.6-1
		C354.9,384.3,355.1,383.8,355.1,383.1z"/>
	<path d="M360.9,384.5c0,0.3,0,0.7-0.1,1.2c-0.1,0.6-0.1,1-0.1,1.4c0,0.2,0,0.5,0,0.9c0,0.5,0,0.8,0,1c0,0.4,0,0.6-0.1,0.7
		c-0.1,0-0.1,0.1-0.2,0.1c-0.2,0-0.3-0.1-0.4-0.3c0-0.2-0.1-0.3-0.1-0.5c-0.3,0.4-0.7,0.7-1.3,0.8c-0.2,0-0.5-0.1-0.8-0.3
		c-0.3-0.2-0.5-0.4-0.6-0.7c-0.1-0.3-0.2-0.9-0.2-1.7v-2.9c-0.1-0.3,0.1-0.4,0.5-0.4c0.3,0,0.4,0.1,0.4,0.4c0,0.4,0,1,0,1.7
		c0,0.9,0,1.4,0,1.7c0,0.3,0.1,0.6,0.2,1c0.2,0.4,0.4,0.6,0.7,0.6c0.5,0,0.8-0.3,1.1-0.9c0.2-0.5,0.3-1,0.3-1.5v-1.8
		c0-0.1,0-0.2-0.1-0.3c0-0.1-0.1-0.2-0.1-0.3c0,0,0-0.1,0-0.1c0.1-0.1,0.3-0.2,0.4-0.2C360.7,383.9,360.9,384.1,360.9,384.5z"/>
	<path d="M366,389.6c-0.1,0.1-0.1,0.1-0.2,0.1s-0.2-0.1-0.5-0.2v-0.1c0-0.1,0-0.2,0-0.4s0-0.3,0-0.4c0-3-0.4-4.5-1.1-4.5
		c-0.2,0-0.5,0.2-0.8,0.5c-0.7,0.8-1,1.9-1,3.2c0,0.2,0,0.4,0.1,0.8c0,0.3,0.1,0.6,0.1,0.7c0,0.1-0.1,0.2-0.3,0.2
		c-0.3,0-0.5-0.3-0.5-0.9v-3.1c0-0.1,0-0.2,0-0.4s0-0.3,0-0.4c0-0.1,0-0.3,0-0.5c0-0.2,0-0.4,0-0.5c0-0.1,0.1-0.2,0.2-0.2
		c0.1-0.1,0.2-0.1,0.3-0.1c0.1,0,0.2,0.1,0.3,0.2c0,0.6,0,0.9,0,1c0,0.1,0,0.3,0,0.4c0.1,0,0.2-0.2,0.3-0.4c0.2-0.3,0.3-0.6,0.4-0.7
		c0.2-0.3,0.5-0.4,0.7-0.4c0.1,0,0.3,0,0.5,0.1c0.5,0.2,0.8,0.5,1,0.9c0.4,0.7,0.5,1.7,0.5,2.8V389.6z"/>
	<path d="M370.9,380.9c0,0.2,0,0.5-0.1,0.8c-0.1,0.4-0.1,0.7-0.1,0.8c0,0.3-0.1,1.2-0.1,2.8c-0.1,1.4-0.1,2.2-0.1,2.4
		c0,1,0.1,1.6,0.3,2c-0.1,0.1-0.1,0.1-0.2,0.1c-0.1,0-0.2,0-0.3-0.1c-0.1-0.1-0.2-0.2-0.2-0.3c0-0.2,0-0.5-0.1-0.8
		c-0.5,0.7-1,1-1.5,1c-0.6,0-1-0.2-1.3-0.7c-0.3-0.4-0.4-0.9-0.4-1.5c0-0.8,0.1-1.5,0.4-2.3c0.4-1.1,0.8-1.6,1.4-1.6
		c0.3,0,0.5,0.1,0.8,0.3c0.1,0,0.3,0.2,0.6,0.6c0.1-0.6,0.1-2,0.1-4c0.1-0.1,0.1-0.1,0.3-0.1c0.2,0,0.3,0.1,0.4,0.2
		C370.9,380.6,370.9,380.7,370.9,380.9z M369.9,385.9c0-0.4-0.1-0.8-0.3-1.1c-0.2-0.4-0.5-0.6-0.9-0.6c-0.5,0-0.8,0.5-1.1,1.4
		c-0.2,0.7-0.3,1.3-0.3,2c0,0.4,0.1,0.7,0.2,1c0.2,0.4,0.4,0.6,0.8,0.6c0.6,0,1-0.4,1.3-1.3C369.8,387.3,369.9,386.6,369.9,385.9z"
		/>
	<path d="M375.5,388.7c0,0.3-0.2,0.6-0.7,0.8c-0.4,0.2-0.8,0.3-1.1,0.3c-0.2,0-0.5-0.1-0.8-0.2c-0.2-0.1-0.4-0.3-0.8-0.6
		c-0.4-0.3-0.6-0.6-0.6-0.7c0-0.3,0.2-0.4,0.5-0.4h0.1c0,0.3,0.3,0.6,0.9,0.9c0.5,0.3,0.9,0.4,1.2,0.4c0.4,0,0.6-0.1,0.6-0.4
		c0-0.2-0.2-0.4-0.7-0.7c-0.7-0.4-1.1-0.7-1.4-0.9c-0.5-0.5-0.7-1-0.7-1.7c0-0.5,0.1-0.9,0.4-1.3c0.3-0.5,0.6-0.8,1.1-0.8
		c0.3,0,0.7,0.1,1.1,0.4c0.4,0.3,0.7,0.6,0.8,0.9c0.1,0.2,0.1,0.5,0.1,0.9c0,0.4-0.1,0.7-0.2,1.1c-0.1,0.1-0.2,0.1-0.3,0.1
		c-0.1,0-0.2,0-0.3-0.1c-0.1,0-0.2-0.1-0.2-0.2c0,0,0-0.1,0.1-0.3c0.1-0.2,0.1-0.4,0.1-0.8c0-1-0.3-1.4-0.9-1.4
		c-0.3,0-0.6,0.2-0.8,0.6c-0.2,0.3-0.2,0.7-0.2,1c0,0.4,0.3,0.9,0.8,1.3c0.2,0.1,0.6,0.5,1.4,0.9
		C375.3,388.3,375.5,388.5,375.5,388.7z"/>
	<path d="M378.5,385.2c-0.1,0.1-0.2,0.1-0.5,0.1c-0.3,0-0.5,0.1-0.5,0.1c0,0.1,0,0.6,0,1.5c0,0.7,0,1.2,0,1.4c0,0.1,0,0.3,0.1,0.5
		s0.1,0.4,0.1,0.5c0,0.1,0,0.1-0.1,0.2s-0.2,0.1-0.2,0.1c-0.2,0-0.3-0.2-0.4-0.6c-0.1-0.3-0.1-0.5-0.1-0.8c0-1.3,0-2.2,0-2.8
		c-0.1,0-0.3,0-0.6,0c-0.3,0-0.4-0.1-0.4-0.3c0-0.3,0.4-0.5,1.1-0.5l0.2-2.4c0,0,0-0.1,0-0.1s0-0.1,0-0.1c0-0.1,0-0.1,0.1-0.2
		c0.1,0,0.2-0.1,0.3-0.1c0.3,0,0.5,0.2,0.5,0.5c0,0.2,0,0.6-0.1,1c-0.1,0.5-0.1,0.8-0.1,1c0,0.1,0,0.2,0,0.3l0.7,0
		c0.3,0,0.4,0.1,0.4,0.3C378.6,385.1,378.6,385.2,378.5,385.2z"/>
	<path d="M382.8,388.2c0,0.4-0.3,0.8-0.8,1.1c-0.5,0.3-0.9,0.4-1.4,0.4c-1.2,0-1.8-0.8-1.8-2.3c0-0.7,0.1-1.4,0.4-2.2
		c0.3-1,0.7-1.5,1.2-1.5c0.4,0,0.9,0.2,1.4,0.7c0.5,0.4,0.8,0.9,0.8,1.3c0,0.6-0.2,1-0.7,1.5c-0.5,0.4-1,0.6-1.5,0.6
		c-0.1,0-0.2,0-0.3-0.1c-0.2-0.1-0.3-0.1-0.4-0.1c-0.1,0-0.2,0-0.2,0.1c0,1,0.3,1.6,1,1.6c0.4,0,0.7-0.1,1-0.4
		c0.2-0.1,0.4-0.3,0.6-0.6c0.2-0.2,0.3-0.3,0.3-0.3C382.7,387.8,382.8,387.9,382.8,388.2z M381.8,385.7c0-0.3-0.1-0.6-0.3-0.9
		c-0.2-0.3-0.4-0.4-0.7-0.4c-0.4,0-0.7,0.2-0.9,0.7c-0.2,0.4-0.3,0.8-0.3,1.2c0,0.3,0.1,0.5,0.2,0.7s0.4,0.3,0.6,0.3
		c0.4,0,0.7-0.2,0.9-0.5C381.7,386.4,381.8,386.1,381.8,385.7z"/>
	<path d="M384.7,384.2c0,0.2,0,0.4-0.1,0.7c-0.1,0.3-0.1,0.6-0.1,0.7v3c0,0.2,0,0.5,0.1,0.8c0,0.1-0.1,0.1-0.1,0.1
		c-0.4,0-0.7-0.2-0.7-0.6v-5c0.1-0.1,0.2-0.1,0.3-0.1c0.1,0,0.2,0,0.3,0.1C384.6,384.1,384.7,384.1,384.7,384.2z M384.9,382.2
		c0,0.3-0.1,0.5-0.4,0.5c-0.2,0-0.3-0.1-0.5-0.2c-0.1-0.1-0.2-0.3-0.2-0.4c0-0.3,0.2-0.5,0.5-0.5c0.2,0,0.3,0.1,0.5,0.2
		S384.9,382,384.9,382.2z"/>
	<path d="M389.9,389.6c-0.1,0.1-0.1,0.1-0.2,0.1s-0.2-0.1-0.5-0.2v-0.1c0-0.1,0-0.2,0-0.4s0-0.3,0-0.4c0-3-0.4-4.5-1.1-4.5
		c-0.2,0-0.5,0.2-0.8,0.5c-0.7,0.8-1,1.9-1,3.2c0,0.2,0,0.4,0.1,0.8c0,0.3,0.1,0.6,0.1,0.7c0,0.1-0.1,0.2-0.3,0.2
		c-0.3,0-0.5-0.3-0.5-0.9v-3.1c0-0.1,0-0.2,0-0.4s0-0.3,0-0.4c0-0.1,0-0.3,0-0.5c0-0.2,0-0.4,0-0.5c0-0.1,0.1-0.2,0.2-0.2
		c0.1-0.1,0.2-0.1,0.3-0.1c0.1,0,0.2,0.1,0.3,0.2c0,0.6,0,0.9,0,1c0,0.1,0,0.3,0,0.4c0.1,0,0.2-0.2,0.3-0.4c0.2-0.3,0.3-0.6,0.4-0.7
		c0.2-0.3,0.5-0.4,0.7-0.4c0.1,0,0.3,0,0.5,0.1c0.5,0.2,0.8,0.5,1,0.9c0.4,0.7,0.5,1.7,0.5,2.8V389.6z"/>
</g>
<circle fill="none" stroke="#0000FF" stroke-width="2.834646e-02" stroke-miterlimit="10" cx="493.2" cy="748.8" r="5"/>
<circle fill="none" stroke="#0000FF" stroke-width="2.834646e-02" stroke-miterlimit="10" cx="838.8" cy="748.8" r="5"/>
<circle fill="none" stroke="#0000FF" stroke-width="2.834646e-02" stroke-miterlimit="10" cx="838.8" cy="583.2" r="5"/>
<circle fill="none" stroke="#0000FF" stroke-width="2.834646e-02" stroke-miterlimit="10" cx="493.2" cy="583.2" r="5"/>
<circle fill="none" stroke="#0000FF" stroke-width="2.834646e-02" stroke-miterlimit="10" cx="838.8" cy="676.8" r="5"/>
<circle fill="none" stroke="#0000FF" stroke-width="2.834646e-02" stroke-miterlimit="10" cx="493.2" cy="676.8" r="5"/>
<circle fill="none" stroke="#0000FF" stroke-width="2.834646e-02" stroke-miterlimit="10" cx="493.2" cy="568.8" r="5"/>
<circle fill="none" stroke="#0000FF" stroke-width="2.834646e-02" stroke-miterlimit="10" cx="838.8" cy="568.8" r="5"/>
<circle fill="none" stroke="#0000FF" stroke-width="2.834646e-02" stroke-miterlimit="10" cx="838.8" cy="403.2" r="5"/>
<circle fill="none" stroke="#0000FF" stroke-width="2.834646e-02" stroke-miterlimit="10" cx="493.2" cy="403.2" r="5"/>
<circle fill="none" stroke="#0000FF" stroke-width="2.834646e-02" stroke-miterlimit="10" cx="838.8" cy="496.8" r="5"/>
<circle fill="none" stroke="#0000FF" stroke-width="2.834646e-02" stroke-miterlimit="10" cx="493.2" cy="496.8" r="5"/>
<circle fill="none" stroke="#0000FF" stroke-width="2.834646e-02" stroke-miterlimit="10" cx="493.2" cy="388.8" r="5"/>
<circle fill="none" stroke="#0000FF" stroke-width="2.834646e-02" stroke-miterlimit="10" cx="493.2" cy="259.2" r="5"/>
<circle fill="none" stroke="#0000FF" stroke-width="2.834646e-02" stroke-miterlimit="10" cx="838.8" cy="388.8" r="5"/>
<circle fill="none" stroke="#0000FF" stroke-width="2.834646e-02" stroke-miterlimit="10" cx="838.8" cy="259.2" r="5"/>
<path fill="none" stroke="#0000FF" stroke-width="2.834646e-02" stroke-miterlimit="10" d="M419.5,191.8h-371c-1.2,0-2.2-1-2.2-2.2
	V67.7c0-1.2,1-2.2,2.2-2.2h371c1.2,0,2.2,1,2.2,2.2v121.9C421.7,190.9,420.7,191.8,419.5,191.8z"/>
<path fill="none" stroke="#0000FF" stroke-width="2.834646e-02" d="M441.5,266.4h8.5v-23.9h-27V234h-8.2v10.5h-10.5V234H396v8.5
	h-21.6V234h-21.6v8.5h-21.6V234h-21.6v8.5H288V234h-21.6v8.5h-21.6V234h-21.6v8.5h-21.6V234H180v8.5h-21.6V234h-21.6v8.5h-21.6V234
	H93.6v8.5H72V234h-8.2v10.5H53.2V234H45v8.5H18v23.9h8.5v12h4.1v-4.3c-0.4,0-0.7-0.3-0.7-0.7s0.3-0.7,0.7-0.7c0.4,0,0.7,0.3,0.7,0.7
	h6.6v5h7.3v8.4h-7.3v5h-6.6c0,0.4-0.3,0.7-0.7,0.7c-0.4,0-0.7-0.3-0.7-0.7s0.3-0.7,0.7-0.7v-4.3h-4.1v12H18v21.6h8.5V342H18v21.6
	h8.5v21.6H18v21.6h8.5v21.6H18V450h8.5v21.6H18v21.6h8.5v21.6H18v21.6h8.5V558H18v21.6h8.5v21.6H18v21.6h8.5v21.6H18V666h8.5v21.6
	H18v21.6h8.5v12h4.1V717c-0.4,0-0.7-0.3-0.7-0.7s0.3-0.7,0.7-0.7c0.4,0,0.7,0.3,0.7,0.7h6.6v5h7.3v8.4h-7.3v5h-6.6
	c0,0.4-0.3,0.7-0.7,0.7c-0.4,0-0.7-0.3-0.7-0.7s0.3-0.7,0.7-0.7v-4.3h-4.1v12H18v23.9h27v8.5h8.2v-10.5h10.5V774H72v-8.5h21.6v8.5
	h21.6v-8.5h21.6v8.5h21.6v-8.5H180v8.5h21.6v-8.5h21.6v8.5h21.6v-8.5h21.6v8.5H288v-8.5h21.6v8.5h21.6v-8.5h21.6v8.5h21.6v-8.5H396
	v8.5h8.2v-10.5h10.5V774h8.2v-8.5h27v-23.9h-8.5v-12h-4.1v4.3c0.4,0,0.7,0.3,0.7,0.7s-0.3,0.7-0.7,0.7c-0.4,0-0.7-0.3-0.7-0.7h-6.6
	v-5h-7.3v-8.4h7.3v-5h6.6c0-0.4,0.3-0.7,0.7-0.7c0.4,0,0.7,0.3,0.7,0.7c0,0.4-0.3,0.7-0.7,0.7v4.3h4.1v-12h8.5v-21.6h-8.5V666h8.5
	v-21.6h-8.5v-21.6h8.5v-21.6h-8.5v-21.6h8.5V558h-8.5v-21.6h8.5v-21.6h-8.5v-21.6h8.5v-21.6h-8.5V450h8.5v-21.6h-8.5v-21.6h8.5
	v-21.6h-8.5v-21.6h8.5V342h-8.5v-21.6h8.5v-21.6h-8.5v-12h-4.1v4.3c0.4,0,0.7,0.3,0.7,0.7s-0.3,0.7-0.7,0.7s-0.7-0.3-0.7-0.7h-6.6
	v-5h-7.3v-8.4h7.3v-5h6.6c0-0.4,0.3-0.7,0.7-0.7s0.7,0.3,0.7,0.7s-0.3,0.7-0.7,0.7v4.3h4.1V266.4z"/>
<path fill="none" stroke="#0000FF" stroke-width="2.834646e-02" d="M450,53.2V45h-8.5V18H423v8.5h-9.3v4.1h4.3
	c0-0.4,0.3-0.7,0.7-0.7s0.7,0.3,0.7,0.7s-0.3,0.7-0.7,0.7v6.6h-5v7.3h-8.4v-7.3h-5v-6.6c-0.4,0-0.7-0.3-0.7-0.7s0.3-0.7,0.7-0.7
	c0.4,0,0.7,0.3,0.7,0.7h4.3v-4.1H396V18h-21.6v8.5h-21.6V18h-21.6v8.5h-21.6V18H288v8.5h-21.6V18h-21.6v8.5h-21.6V18h-21.6v8.5H180
	V18h-21.6v8.5h-21.6V18h-21.6v8.5H93.6V18H72v8.5h-9.3v4.1h4.3c0-0.4,0.3-0.7,0.7-0.7c0.4,0,0.7,0.3,0.7,0.7s-0.3,0.7-0.7,0.7v6.6
	h-5v7.3h-8.4v-7.3h-5v-6.6c-0.4,0-0.7-0.3-0.7-0.7s0.3-0.7,0.7-0.7c0.4,0,0.7,0.3,0.7,0.7h4.3v-4.1H45V18H26.5v27H18v8.2h10.5v10.5
	H18V72h8.5v21.6H18v21.6h8.5v21.6H18v21.6h8.5V180H18v8.2h10.5v10.5H18v8.2h8.5v27H45v-8.5h9.3v-4.1h-4.3c0,0.4-0.3,0.7-0.7,0.7
	s-0.7-0.3-0.7-0.7c0-0.4,0.3-0.7,0.7-0.7v-6.6h5v-7.3h8.4v7.3h5v6.6c0.4,0,0.7,0.3,0.7,0.7c0,0.4-0.3,0.7-0.7,0.7
	c-0.4,0-0.7-0.3-0.7-0.7h-4.3v4.1H72v8.5h21.6v-8.5h21.6v8.5h21.6v-8.5h21.6v8.5H180v-8.5h21.6v8.5h21.6v-8.5h21.6v8.5h21.6v-8.5
	H288v8.5h21.6v-8.5h21.6v8.5h21.6v-8.5h21.6v8.5H396v-8.5h9.3v-4.1h-4.3c0,0.4-0.3,0.7-0.7,0.7c-0.4,0-0.7-0.3-0.7-0.7
	s0.3-0.7,0.7-0.7v-6.6h5v-7.3h8.4v7.3h5v6.6c0.4,0,0.7,0.3,0.7,0.7s-0.3,0.7-0.7,0.7s-0.7-0.3-0.7-0.7h-4.3v4.1h9.3v8.5h18.5v-27
	h8.5v-8.2h-10.5v-10.5H450V180h-8.5v-21.6h8.5v-21.6h-8.5v-21.6h8.5V93.6h-8.5V72h8.5v-8.2h-10.5V53.2H450z"/>
<path fill="none" stroke="#0000FF" stroke-width="2.834646e-02" d="M882,53.2V45h-8.5V18H855v8.5h-9.3v4.1h4.3
	c0-0.4,0.3-0.7,0.7-0.7s0.7,0.3,0.7,0.7s-0.3,0.7-0.7,0.7v6.6h-5v7.3h-8.4v-7.3h-5v-6.6c-0.4,0-0.7-0.3-0.7-0.7s0.3-0.7,0.7-0.7
	s0.7,0.3,0.7,0.7h4.3v-4.1H828V18h-21.6v8.5h-21.6V18h-21.6v8.5h-21.6V18H720v8.5h-21.6V18h-21.6v8.5h-21.6V18h-21.6v8.5H612V18
	h-21.6v8.5h-21.6V18h-21.6v8.5h-21.6V18H504v8.5h-9.3v4.1h4.3c0-0.4,0.3-0.7,0.7-0.7s0.7,0.3,0.7,0.7s-0.3,0.7-0.7,0.7v6.6h-5v7.3
	h-8.4v-7.3h-5v-6.6c-0.4,0-0.7-0.3-0.7-0.7s0.3-0.7,0.7-0.7s0.7,0.3,0.7,0.7h4.3v-4.1H477V18h-18.5v27H450v8.2h10.5v10.5H450V72h8.5
	v21.6H450v21.6h8.5v21.6H450v21.6h8.5V180H450v8.2h10.5v10.5H450v8.2h8.5v27H477v-8.5h9.3v-4.1h-4.3c0,0.4-0.3,0.7-0.7,0.7
	s-0.7-0.3-0.7-0.7c0-0.4,0.3-0.7,0.7-0.7v-6.6h5v-7.3h8.4v7.3h5v6.6c0.4,0,0.7,0.3,0.7,0.7c0,0.4-0.3,0.7-0.7,0.7
	c-0.4,0-0.7-0.3-0.7-0.7h-4.3v4.1h9.3v8.5h21.6v-8.5h21.6v8.5h21.6v-8.5h21.6v8.5H612v-8.5h21.6v8.5h21.6v-8.5h21.6v8.5h21.6v-8.5
	H720v8.5h21.6v-8.5h21.6v8.5h21.6v-8.5h21.6v8.5H828v-8.5h9.3v-4.1h-4.4c0,0.4-0.3,0.7-0.7,0.7c-0.4,0-0.7-0.3-0.7-0.7
	s0.3-0.7,0.7-0.7c0.1,0,0.1,0,0.2,0v-6.7h5v-7.3h8.4v7.3h5v6.6c0.4,0,0.7,0.3,0.7,0.7s-0.3,0.7-0.7,0.7s-0.7-0.3-0.7-0.7h-4.3v4.1
	h9.3v8.5h18.5v-27h8.5v-8.2h-10.5v-10.5H882V180h-8.5v-21.6h8.5v-21.6h-8.5v-21.6h8.5V93.6h-8.5V72h8.5v-8.2h-10.5V53.2H882z"/>
<path fill="none" stroke="#0000FF" stroke-width="2.834646e-02" d="M869.4,274.2v4.3h4.1v-12h8.5v-23.9h-27V234h-8.2v10.5h-10.5V234
	H828v8.5h-21.6V234h-21.6v8.5h-21.6V234h-21.6v8.5H720V234h-21.6v8.5h-21.6V234h-21.6v8.5h-21.6V234H612v8.5h-21.6V234h-21.6v8.5
	h-21.6V234h-21.6v8.5H504V234h-8.2v10.5h-10.5V234H477v8.5h-27v23.9h8.5v12h4.1v-4.3c-0.4,0-0.7-0.3-0.7-0.7s0.3-0.7,0.7-0.7
	s0.7,0.3,0.7,0.7h6.6v5h7.3v8.4h-7.3v5h-6.6c0,0.4-0.3,0.7-0.7,0.7s-0.7-0.3-0.7-0.7s0.3-0.7,0.7-0.7v-4.3h-4.1v12H450v21.6h8.5V342
	H450v21.6h8.5v21.6H450v21.6h8.5v21.6H450V450h8.5v21.6H450v21.6h8.5v21.6H450v21.6h8.5V558H450v21.6h8.5v21.6H450v21.6h8.5v21.6
	H450V666h8.5v21.6H450v21.6h8.5v12h4.1V717c-0.4,0-0.7-0.3-0.7-0.7c0-0.4,0.3-0.7,0.7-0.7c0.4,0,0.7,0.3,0.7,0.7h6.6v5h7.3v8.4h-7.3
	v5h-6.6c0,0.4-0.3,0.7-0.7,0.7c-0.4,0-0.7-0.3-0.7-0.7s0.3-0.7,0.7-0.7v-4.3h-4.1v12H450v23.9h27v8.5h8.2v-10.5h10.5V774h8.2v-8.5
	h21.6v8.5h21.6v-8.5h21.6v8.5h21.6v-8.5H612v8.5h21.6v-8.5h21.6v8.5h21.6v-8.5h21.6v8.5H720v-8.5h21.6v8.5h21.6v-8.5h21.6v8.5h21.6
	v-8.5H828v8.5h8.2v-10.5h10.5V774h8.2v-8.5h27v-23.9h-8.5v-12h-4.1v4.3c0.4,0,0.7,0.3,0.7,0.7s-0.3,0.7-0.7,0.7s-0.7-0.3-0.7-0.7
	h-6.6v-5h-7.3v-8.4h7.3v-5h6.6c0-0.4,0.3-0.7,0.7-0.7s0.7,0.3,0.7,0.7s-0.3,0.7-0.7,0.7v4.3h4.1v-12h8.5v-21.6h-8.5V666h8.5v-21.6
	h-8.5v-21.6h8.5v-21.6h-8.5v-21.6h8.5V558h-8.5v-21.6h8.5v-21.6h-8.5v-21.6h8.5v-21.6h-8.5V450h8.5v-21.6h-8.5v-21.6h8.5v-21.6h-8.5
	v-21.6h8.5V342h-8.5v-21.6h8.5v-21.6h-8.5v-12h-4.1v4.3c0.4,0,0.7,0.3,0.7,0.7s-0.3,0.7-0.7,0.7s-0.7-0.3-0.7-0.7h-6.6v-5h-7.3v-8.4
	h7.3v-5h6.6c0-0.4,0.3-0.7,0.7-0.7s0.7,0.3,0.7,0.7S869.8,274.2,869.4,274.2z"/>
<path fill="none" stroke="#0000FF" stroke-width="2.834646e-02" d="M1413.5,261h8.5v-18.5h-32.4V234h-10.9v10.5h-10.5V234h-10.9v8.5
	h-21.6V234H1314v8.5h-21.6V234h-21.6v8.5h-21.6V234h-21.6v8.5H1206V234h-21.6v8.5h-21.6V234h-21.6v8.5h-21.6V234H1098v8.5h-21.6V234
	h-21.6v8.5h-21.6V234h-21.6v8.5H990V234h-21.6v8.5h-21.6V234h-10.9v10.5h-10.5V234h-10.9v8.5H882V261h8.5v9.3h4.1v-4.3
	c-0.4,0-0.7-0.3-0.7-0.7c0-0.4,0.3-0.7,0.7-0.7c0.4,0,0.7,0.3,0.7,0.7h6.6v5h7.3v8.4h-7.3v5h-6.6c0,0.4-0.3,0.7-0.7,0.7
	c-0.4,0-0.7-0.3-0.7-0.7c0-0.4,0.3-0.7,0.7-0.7v-4.3h-4.1v9.3H882v21.6h8.5v21.6H882v21.6h8.5v21.6H882V396h8.5v9.3h4.1v-4.3
	c-0.4,0-0.7-0.3-0.7-0.7s0.3-0.7,0.7-0.7s0.7,0.3,0.7,0.7h6.6v5h7.3v8.4h-7.3v5h-6.6c0,0.4-0.3,0.7-0.7,0.7s-0.7-0.3-0.7-0.7
	s0.3-0.7,0.7-0.7v-4.3h-4.1v9.3H882v18.5h32.4v8.5h10.9v-10.5h10.5V450h10.9v-8.5h21.6v8.5H990v-8.5h21.6v8.5h21.6v-8.5h21.6v8.5
	h21.6v-8.5h21.6v8.5h21.6v-8.5h21.6v8.5h21.6v-8.5h21.6v8.5h21.6v-8.5h21.6v8.5h21.6v-8.5h21.6v8.5h21.6v-8.5h21.6v8.5h21.6v-8.5
	h21.6v8.5h10.9v-10.5h10.5V450h10.9v-8.5h32.4V423h-8.5v-9.3h-4.1v4.3c0.4,0,0.7,0.3,0.7,0.7s-0.3,0.7-0.7,0.7s-0.7-0.3-0.7-0.7
	h-6.6v-5h-7.3v-8.4h7.3v-5h6.6c0-0.4,0.3-0.7,0.7-0.7s0.7,0.3,0.7,0.7s-0.3,0.7-0.7,0.7v4.3h4.1V396h8.5v-21.6h-8.5v-21.6h8.5v-21.6
	h-8.5v-21.6h8.5V288h-8.5v-9.3h-4.1v4.3c0.4,0,0.7,0.3,0.7,0.7s-0.3,0.7-0.7,0.7s-0.7-0.3-0.7-0.7h-6.6v-5h-7.3v-8.4h7.3v-5h6.6
	c0-0.4,0.3-0.7,0.7-0.7s0.7,0.3,0.7,0.7s-0.3,0.7-0.7,0.7v4.3h4.1V261z"/>
<path fill="none" stroke="#0000FF" stroke-width="2.834646e-02" d="M1413.5,45h8.5V26.5h-32.4V18h-10.9v10.5h-10.5V18h-10.9v8.5
	h-21.6V18H1314v8.5h-21.6V18h-21.6v8.5h-21.6V18h-21.6v8.5H1206V18h-21.6v8.5h-21.6V18h-21.6v8.5h-21.6V18H1098v8.5h-21.6V18h-21.6
	v8.5h-21.6V18h-21.6v8.5H990V18h-21.6v8.5h-21.6V18h-10.9v10.5h-10.5V18h-10.9v8.5H882V45h8.5v9.3h4.1v-4.3c-0.4,0-0.7-0.3-0.7-0.7
	c0-0.4,0.3-0.7,0.7-0.7c0.4,0,0.7,0.3,0.7,0.7h6.6v5h7.3v8.4h-7.3v5h-6.6c0,0.4-0.3,0.7-0.7,0.7c-0.4,0-0.7-0.3-0.7-0.7
	c0-0.4,0.3-0.7,0.7-0.7v-4.3h-4.1V72H882v21.6h8.5v21.6H882v21.6h8.5v21.6H882V180h8.5v9.3h4.1v-4.3c-0.4,0-0.7-0.3-0.7-0.7
	s0.3-0.7,0.7-0.7s0.7,0.3,0.7,0.7h6.6v5h7.3v8.4h-7.3v5h-6.6c0,0.4-0.3,0.7-0.7,0.7s-0.7-0.3-0.7-0.7s0.3-0.7,0.7-0.7v-4.3h-4.1v9.3
	H882v18.5h32.4v8.5h10.9v-10.5h10.5V234h10.9v-8.5h21.6v8.5H990v-8.5h21.6v8.5h21.6v-8.5h21.6v8.5h21.6v-8.5h21.6v8.5h21.6v-8.5
	h21.6v8.5h21.6v-8.5h21.6v8.5h21.6v-8.5h21.6v8.5h21.6v-8.5h21.6v8.5h21.6v-8.5h21.6v8.5h21.6v-8.5h21.6v8.5h10.9v-10.5h10.5V234
	h10.9v-8.5h32.4V207h-8.5v-9.3h-4.1v4.3c0.4,0,0.7,0.3,0.7,0.7s-0.3,0.7-0.7,0.7s-0.7-0.3-0.7-0.7h-6.6v-5h-7.3v-8.4h7.3v-5h6.6
	c0-0.4,0.3-0.7,0.7-0.7s0.7,0.3,0.7,0.7s-0.3,0.7-0.7,0.7v4.3h4.1V180h8.5v-21.6h-8.5v-21.6h8.5v-21.6h-8.5V93.6h8.5V72h-8.5v-9.3
	h-4.1v4.3c0.4,0,0.7,0.3,0.7,0.7s-0.3,0.7-0.7,0.7s-0.7-0.3-0.7-0.7h-6.6v-5h-7.3v-8.4h7.3v-5h6.6c0-0.4,0.3-0.7,0.7-0.7
	s0.7,0.3,0.7,0.7s-0.3,0.7-0.7,0.7v4.3h4.1V45z"/>
</svg>
