<?xml version="1.0" encoding="utf-8"?>
<!-- Generator: Adobe Illustrator 18.0.0, SVG Export Plug-In . SVG Version: 6.00 Build 0)  -->
<!DOCTYPE svg PUBLIC "-//W3C//DTD SVG 1.1//EN" "http://www.w3.org/Graphics/SVG/1.1/DTD/svg11.dtd">
<svg version="1.1" id="Layer_1" xmlns="http://www.w3.org/2000/svg" xmlns:xlink="http://www.w3.org/1999/xlink" x="0px" y="0px"
	 viewBox="0 0 1440 792" enable-background="new 0 0 1440 792" xml:space="preserve">
<g transform="translate(22.5, 22.5) ">
	<polygon fill="none" stroke="#0000FF" stroke-width="0.9" points="4,-4.5 22.5,-4.5 22.5,4 31.8,4 31.8,8.1 26.9,8.1 26.9,15.4 
		31.8,15.4 31.8,22.8 40.2,22.8 40.2,15.4 45.1,15.4 45.1,8.1 40.2,8.1 40.2,4 49.5,4 49.5,-4.5 71.1,-4.5 71.1,4 92.7,4 92.7,-4.5 
		114.3,-4.5 114.3,4 135.9,4 135.9,-4.5 157.5,-4.5 157.5,4 179.1,4 179.1,-4.5 200.7,-4.5 200.7,4 222.3,4 222.3,-4.5 243.9,-4.5 
		243.9,4 265.5,4 265.5,-4.5 287.1,-4.5 287.1,4 308.7,4 308.7,-4.5 330.3,-4.5 330.3,4 351.9,4 351.9,-4.5 373.5,-4.5 373.5,4 
		382.8,4 382.8,8.1 377.9,8.1 377.9,15.4 382.8,15.4 382.8,22.8 391.2,22.8 391.2,15.4 396.1,15.4 396.1,8.1 391.2,8.1 391.2,4 
		400.5,4 400.5,-4.5 419,-4.5 419,22.5 427.5,22.5 427.5,30.7 417,30.7 417,41.3 427.5,41.3 427.5,49.5 419,49.5 419,71.1 
		427.5,71.1 427.5,92.7 419,92.7 419,114.3 427.5,114.3 427.5,135.9 419,135.9 419,157.5 427.5,157.5 427.5,165.7 417,165.7 
		417,176.3 427.5,176.3 427.5,184.5 419,184.5 419,211.5 400.5,211.5 400.5,203 391.2,203 391.2,198.9 396.1,198.9 396.1,191.6 
		391.2,191.6 391.2,184.2 382.8,184.2 382.8,191.6 377.9,191.6 377.9,198.9 382.8,198.9 382.8,203 373.5,203 373.5,211.5 
		351.9,211.5 351.9,203 330.3,203 330.3,211.5 308.7,211.5 308.7,203 287.1,203 287.1,211.5 265.5,211.5 265.5,203 243.9,203 
		243.9,211.5 222.3,211.5 222.3,203 200.7,203 200.7,211.5 179.1,211.5 179.1,203 157.5,203 157.5,211.5 135.9,211.5 135.9,203 
		114.3,203 114.3,211.5 92.7,211.5 92.7,203 71.1,203 71.1,211.5 49.5,211.5 49.5,203 40.2,203 40.2,198.9 45.1,198.9 45.1,191.6 
		40.2,191.6 40.2,184.2 31.8,184.2 31.8,191.6 26.9,191.6 26.9,198.9 31.8,198.9 31.8,203 22.5,203 22.5,211.5 4,211.5 4,184.5 
		-4.5,184.5 -4.5,176.3 6,176.3 6,165.7 -4.5,165.7 -4.5,157.5 4,157.5 4,135.9 -4.5,135.9 -4.5,114.3 4,114.3 4,92.7 -4.5,92.7 
		-4.5,71.1 4,71.1 4,49.5 -4.5,49.5 -4.5,41.3 6,41.3 6,30.7 -4.5,30.7 -4.5,22.5 4,22.5 	"/>
</g>
<g transform="translate(562.5, 22.5) ">
	<polygon fill="none" stroke="#0000FF" stroke-width="0.9" points="-104,-4.5 -85.5,-4.5 -85.5,4 -76.2,4 -76.2,8.1 -81.1,8.1 
		-81.1,15.4 -76.2,15.4 -76.2,22.8 -67.8,22.8 -67.8,15.4 -62.9,15.4 -62.9,8.1 -67.8,8.1 -67.8,4 -58.5,4 -58.5,-4.5 -36.9,-4.5 
		-36.9,4 -15.3,4 -15.3,-4.5 6.3,-4.5 6.3,4 27.9,4 27.9,-4.5 49.5,-4.5 49.5,4 71.1,4 71.1,-4.5 92.7,-4.5 92.7,4 114.3,4 
		114.3,-4.5 135.9,-4.5 135.9,4 157.5,4 157.5,-4.5 179.1,-4.5 179.1,4 200.7,4 200.7,-4.5 222.3,-4.5 222.3,4 243.9,4 243.9,-4.5 
		265.5,-4.5 265.5,4 274.8,4 274.8,8.1 269.9,8.1 269.9,15.4 274.8,15.4 274.8,22.8 283.2,22.8 283.2,15.4 288.1,15.4 288.1,8.1 
		283.2,8.1 283.2,4 292.5,4 292.5,-4.5 311,-4.5 311,22.5 319.5,22.5 319.5,30.7 309,30.7 309,41.3 319.5,41.3 319.5,49.5 311,49.5 
		311,71.1 319.5,71.1 319.5,92.7 311,92.7 311,114.3 319.5,114.3 319.5,135.9 311,135.9 311,157.5 319.5,157.5 319.5,165.7 
		309,165.7 309,176.3 319.5,176.3 319.5,184.5 311,184.5 311,211.5 292.5,211.5 292.5,203 283.2,203 283.2,198.9 288.1,198.9 
		288.1,191.6 283.2,191.6 283.2,184.2 274.8,184.2 274.8,191.6 269.9,191.6 269.9,198.9 274.8,198.9 274.8,203 265.5,203 
		265.5,211.5 243.9,211.5 243.9,203 222.3,203 222.3,211.5 200.7,211.5 200.7,203 179.1,203 179.1,211.5 157.5,211.5 157.5,203 
		135.9,203 135.9,211.5 114.3,211.5 114.3,203 92.7,203 92.7,211.5 71.1,211.5 71.1,203 49.5,203 49.5,211.5 27.9,211.5 27.9,203 
		6.3,203 6.3,211.5 -15.3,211.5 -15.3,203 -36.9,203 -36.9,211.5 -58.5,211.5 -58.5,203 -67.8,203 -67.8,198.9 -62.9,198.9 
		-62.9,191.6 -67.8,191.6 -67.8,184.2 -76.2,184.2 -76.2,191.6 -81.1,191.6 -81.1,198.9 -76.2,198.9 -76.2,203 -85.5,203 
		-85.5,211.5 -104,211.5 -104,184.5 -112.5,184.5 -112.5,176.3 -102,176.3 -102,165.7 -112.5,165.7 -112.5,157.5 -104,157.5 
		-104,135.9 -112.5,135.9 -112.5,114.3 -104,114.3 -104,92.7 -112.5,92.7 -112.5,71.1 -104,71.1 -104,49.5 -112.5,49.5 -112.5,41.3 
		-102,41.3 -102,30.7 -112.5,30.7 -112.5,22.5 -104,22.5 	"/>
</g>
<g transform="translate(1102.5, 22.5) ">
	<polygon fill="none" stroke="#0000FF" stroke-width="0.9" points="-220.5,4 -188.1,4 -188.1,-4.5 -177.2,-4.5 -177.2,6 -166.6,6 
		-166.6,-4.5 -155.7,-4.5 -155.7,4 -134.1,4 -134.1,-4.5 -112.5,-4.5 -112.5,4 -90.9,4 -90.9,-4.5 -69.3,-4.5 -69.3,4 -47.7,4 
		-47.7,-4.5 -26.1,-4.5 -26.1,4 -4.5,4 -4.5,-4.5 17.1,-4.5 17.1,4 38.7,4 38.7,-4.5 60.3,-4.5 60.3,4 81.9,4 81.9,-4.5 103.5,-4.5 
		103.5,4 125.1,4 125.1,-4.5 146.7,-4.5 146.7,4 168.3,4 168.3,-4.5 189.9,-4.5 189.9,4 211.5,4 211.5,-4.5 233.1,-4.5 233.1,4 
		254.7,4 254.7,-4.5 265.6,-4.5 265.6,6 276.2,6 276.2,-4.5 287.1,-4.5 287.1,4 319.5,4 319.5,22.5 311,22.5 311,31.8 306.9,31.8 
		306.9,26.9 299.6,26.9 299.6,31.8 292.2,31.8 292.2,40.2 299.6,40.2 299.6,45.1 306.9,45.1 306.9,40.2 311,40.2 311,49.5 
		319.5,49.5 319.5,71.1 311,71.1 311,92.7 319.5,92.7 319.5,114.3 311,114.3 311,135.9 319.5,135.9 319.5,157.5 311,157.5 
		311,166.8 306.9,166.8 306.9,161.9 299.6,161.9 299.6,166.8 292.2,166.8 292.2,175.2 299.6,175.2 299.6,180.1 306.9,180.1 
		306.9,175.2 311,175.2 311,184.5 319.5,184.5 319.5,203 287.1,203 287.1,211.5 276.2,211.5 276.2,201 265.6,201 265.6,211.5 
		254.7,211.5 254.7,203 233.1,203 233.1,211.5 211.5,211.5 211.5,203 189.9,203 189.9,211.5 168.3,211.5 168.3,203 146.7,203 
		146.7,211.5 125.1,211.5 125.1,203 103.5,203 103.5,211.5 81.9,211.5 81.9,203 60.3,203 60.3,211.5 38.7,211.5 38.7,203 17.1,203 
		17.1,211.5 -4.5,211.5 -4.5,203 -26.1,203 -26.1,211.5 -47.7,211.5 -47.7,203 -69.3,203 -69.3,211.5 -90.9,211.5 -90.9,203 
		-112.5,203 -112.5,211.5 -134.1,211.5 -134.1,203 -155.7,203 -155.7,211.5 -166.6,211.5 -166.6,201 -177.2,201 -177.2,211.5 
		-188.1,211.5 -188.1,203 -220.5,203 -220.5,184.5 -212,184.5 -212,175.2 -207.9,175.2 -207.9,180.1 -200.6,180.1 -200.6,175.2 
		-193.2,175.2 -193.2,166.8 -200.6,166.8 -200.6,161.9 -207.9,161.9 -207.9,166.8 -212,166.8 -212,157.5 -220.5,157.5 -220.5,135.9 
		-212,135.9 -212,114.3 -220.5,114.3 -220.5,92.7 -212,92.7 -212,71.1 -220.5,71.1 -220.5,49.5 -212,49.5 -212,40.2 -207.9,40.2 
		-207.9,45.1 -200.6,45.1 -200.6,40.2 -193.2,40.2 -193.2,31.8 -200.6,31.8 -200.6,26.9 -207.9,26.9 -207.9,31.8 -212,31.8 
		-212,22.5 -220.5,22.5 	"/>
</g>
<g transform="translate(1102.5, 292.5) ">
	<polygon fill="none" stroke="#0000FF" stroke-width="0.9" points="-220.5,-50 -188.1,-50 -188.1,-58.5 -177.2,-58.5 -177.2,-48 
		-166.6,-48 -166.6,-58.5 -155.7,-58.5 -155.7,-50 -134.1,-50 -134.1,-58.5 -112.5,-58.5 -112.5,-50 -90.9,-50 -90.9,-58.5 
		-69.3,-58.5 -69.3,-50 -47.7,-50 -47.7,-58.5 -26.1,-58.5 -26.1,-50 -4.5,-50 -4.5,-58.5 17.1,-58.5 17.1,-50 38.7,-50 38.7,-58.5 
		60.3,-58.5 60.3,-50 81.9,-50 81.9,-58.5 103.5,-58.5 103.5,-50 125.1,-50 125.1,-58.5 146.7,-58.5 146.7,-50 168.3,-50 
		168.3,-58.5 189.9,-58.5 189.9,-50 211.5,-50 211.5,-58.5 233.1,-58.5 233.1,-50 254.7,-50 254.7,-58.5 265.6,-58.5 265.6,-48 
		276.2,-48 276.2,-58.5 287.1,-58.5 287.1,-50 319.5,-50 319.5,-31.5 311,-31.5 311,-22.2 306.9,-22.2 306.9,-27.1 299.6,-27.1 
		299.6,-22.2 292.2,-22.2 292.2,-13.8 299.6,-13.8 299.6,-8.9 306.9,-8.9 306.9,-13.8 311,-13.8 311,-4.5 319.5,-4.5 319.5,17.1 
		311,17.1 311,38.7 319.5,38.7 319.5,60.3 311,60.3 311,81.9 319.5,81.9 319.5,103.5 311,103.5 311,112.8 306.9,112.8 306.9,107.9 
		299.6,107.9 299.6,112.8 292.2,112.8 292.2,121.2 299.6,121.2 299.6,126.1 306.9,126.1 306.9,121.2 311,121.2 311,130.5 
		319.5,130.5 319.5,149 287.1,149 287.1,157.5 276.2,157.5 276.2,147 265.6,147 265.6,157.5 254.7,157.5 254.7,149 233.1,149 
		233.1,157.5 211.5,157.5 211.5,149 189.9,149 189.9,157.5 168.3,157.5 168.3,149 146.7,149 146.7,157.5 125.1,157.5 125.1,149 
		103.5,149 103.5,157.5 81.9,157.5 81.9,149 60.3,149 60.3,157.5 38.7,157.5 38.7,149 17.1,149 17.1,157.5 -4.5,157.5 -4.5,149 
		-26.1,149 -26.1,157.5 -47.7,157.5 -47.7,149 -69.3,149 -69.3,157.5 -90.9,157.5 -90.9,149 -112.5,149 -112.5,157.5 -134.1,157.5 
		-134.1,149 -155.7,149 -155.7,157.5 -166.6,157.5 -166.6,147 -177.2,147 -177.2,157.5 -188.1,157.5 -188.1,149 -220.5,149 
		-220.5,130.5 -212,130.5 -212,121.2 -207.9,121.2 -207.9,126.1 -200.6,126.1 -200.6,121.2 -193.2,121.2 -193.2,112.8 -200.6,112.8 
		-200.6,107.9 -207.9,107.9 -207.9,112.8 -212,112.8 -212,103.5 -220.5,103.5 -220.5,81.9 -212,81.9 -212,60.3 -220.5,60.3 
		-220.5,38.7 -212,38.7 -212,17.1 -220.5,17.1 -220.5,-4.5 -212,-4.5 -212,-13.8 -207.9,-13.8 -207.9,-8.9 -200.6,-8.9 
		-200.6,-13.8 -193.2,-13.8 -193.2,-22.2 -200.6,-22.2 -200.6,-27.1 -207.9,-27.1 -207.9,-22.2 -212,-22.2 -212,-31.5 -220.5,-31.5 
			"/>
</g>
<g transform="translate(22.5, 292.5) ">
	<polygon fill="none" stroke="#0000FF" stroke-width="0.9" points="-4.5,-50 22.5,-50 22.5,-58.5 30.7,-58.5 30.7,-48 41.3,-48 
		41.3,-58.5 49.5,-58.5 49.5,-50 71.1,-50 71.1,-58.5 92.7,-58.5 92.7,-50 114.3,-50 114.3,-58.5 135.9,-58.5 135.9,-50 157.5,-50 
		157.5,-58.5 179.1,-58.5 179.1,-50 200.7,-50 200.7,-58.5 222.3,-58.5 222.3,-50 243.9,-50 243.9,-58.5 265.5,-58.5 265.5,-50 
		287.1,-50 287.1,-58.5 308.7,-58.5 308.7,-50 330.3,-50 330.3,-58.5 351.9,-58.5 351.9,-50 373.5,-50 373.5,-58.5 381.7,-58.5 
		381.7,-48 392.3,-48 392.3,-58.5 400.5,-58.5 400.5,-50 427.5,-50 427.5,-26.1 419,-26.1 419,-14.1 414.9,-14.1 414.9,-19 
		407.6,-19 407.6,-14.1 400.2,-14.1 400.2,-5.7 407.6,-5.7 407.6,-0.8 414.9,-0.8 414.9,-5.7 419,-5.7 419,6.3 427.5,6.3 
		427.5,27.9 419,27.9 419,49.5 427.5,49.5 427.5,71.1 419,71.1 419,92.7 427.5,92.7 427.5,114.3 419,114.3 419,135.9 427.5,135.9 
		427.5,157.5 419,157.5 419,179.1 427.5,179.1 427.5,200.7 419,200.7 419,222.3 427.5,222.3 427.5,243.9 419,243.9 419,265.5 
		427.5,265.5 427.5,287.1 419,287.1 419,308.7 427.5,308.7 427.5,330.3 419,330.3 419,351.9 427.5,351.9 427.5,373.5 419,373.5 
		419,395.1 427.5,395.1 427.5,416.7 419,416.7 419,428.7 414.9,428.7 414.9,423.8 407.6,423.8 407.6,428.7 400.2,428.7 400.2,437.1 
		407.6,437.1 407.6,442 414.9,442 414.9,437.1 419,437.1 419,449.1 427.5,449.1 427.5,473 400.5,473 400.5,481.5 392.3,481.5 
		392.3,471 381.7,471 381.7,481.5 373.5,481.5 373.5,473 351.9,473 351.9,481.5 330.3,481.5 330.3,473 308.7,473 308.7,481.5 
		287.1,481.5 287.1,473 265.5,473 265.5,481.5 243.9,481.5 243.9,473 222.3,473 222.3,481.5 200.7,481.5 200.7,473 179.1,473 
		179.1,481.5 157.5,481.5 157.5,473 135.9,473 135.9,481.5 114.3,481.5 114.3,473 92.7,473 92.7,481.5 71.1,481.5 71.1,473 
		49.5,473 49.5,481.5 41.3,481.5 41.3,471 30.7,471 30.7,481.5 22.5,481.5 22.5,473 -4.5,473 -4.5,449.1 4,449.1 4,437.1 8.1,437.1 
		8.1,442 15.4,442 15.4,437.1 22.8,437.1 22.8,428.7 15.4,428.7 15.4,423.8 8.1,423.8 8.1,428.7 4,428.7 4,416.7 -4.5,416.7 
		-4.5,395.1 4,395.1 4,373.5 -4.5,373.5 -4.5,351.9 4,351.9 4,330.3 -4.5,330.3 -4.5,308.7 4,308.7 4,287.1 -4.5,287.1 -4.5,265.5 
		4,265.5 4,243.9 -4.5,243.9 -4.5,222.3 4,222.3 4,200.7 -4.5,200.7 -4.5,179.1 4,179.1 4,157.5 -4.5,157.5 -4.5,135.9 4,135.9 
		4,114.3 -4.5,114.3 -4.5,92.7 4,92.7 4,71.1 -4.5,71.1 -4.5,49.5 4,49.5 4,27.9 -4.5,27.9 -4.5,6.3 4,6.3 4,-5.7 8.1,-5.7 
		8.1,-0.8 15.4,-0.8 15.4,-5.7 22.8,-5.7 22.8,-14.1 15.4,-14.1 15.4,-19 8.1,-19 8.1,-14.1 4,-14.1 4,-26.1 -4.5,-26.1 	"/>
</g>
<g transform="translate(562.5, 292.5) ">
	<polygon fill="none" stroke="#0000FF" stroke-width="0.9" points="-112.5,-50 -85.5,-50 -85.5,-58.5 -77.3,-58.5 -77.3,-48 
		-66.7,-48 -66.7,-58.5 -58.5,-58.5 -58.5,-50 -36.9,-50 -36.9,-58.5 -15.3,-58.5 -15.3,-50 6.3,-50 6.3,-58.5 27.9,-58.5 27.9,-50 
		49.5,-50 49.5,-58.5 71.1,-58.5 71.1,-50 92.7,-50 92.7,-58.5 114.3,-58.5 114.3,-50 135.9,-50 135.9,-58.5 157.5,-58.5 157.5,-50 
		179.1,-50 179.1,-58.5 200.7,-58.5 200.7,-50 222.3,-50 222.3,-58.5 243.9,-58.5 243.9,-50 265.5,-50 265.5,-58.5 273.7,-58.5 
		273.7,-48 284.3,-48 284.3,-58.5 292.5,-58.5 292.5,-50 319.5,-50 319.5,-26.1 311,-26.1 311,-14.1 306.9,-14.1 306.9,-19 
		299.6,-19 299.6,-14.1 292.2,-14.1 292.2,-5.7 299.6,-5.7 299.6,-0.8 306.9,-0.8 306.9,-5.7 311,-5.7 311,6.3 319.5,6.3 
		319.5,27.9 311,27.9 311,49.5 319.5,49.5 319.5,71.1 311,71.1 311,92.7 319.5,92.7 319.5,114.3 311,114.3 311,135.9 319.5,135.9 
		319.5,157.5 311,157.5 311,179.1 319.5,179.1 319.5,200.7 311,200.7 311,222.3 319.5,222.3 319.5,243.9 311,243.9 311,265.5 
		319.5,265.5 319.5,287.1 311,287.1 311,308.7 319.5,308.7 319.5,330.3 311,330.3 311,351.9 319.5,351.9 319.5,373.5 311,373.5 
		311,395.1 319.5,395.1 319.5,416.7 311,416.7 311,428.7 306.9,428.7 306.9,423.8 299.6,423.8 299.6,428.7 292.2,428.7 292.2,437.1 
		299.6,437.1 299.6,442 306.9,442 306.9,437.1 311,437.1 311,449.1 319.5,449.1 319.5,473 292.5,473 292.5,481.5 284.3,481.5 
		284.3,471 273.7,471 273.7,481.5 265.5,481.5 265.5,473 243.9,473 243.9,481.5 222.3,481.5 222.3,473 200.7,473 200.7,481.5 
		179.1,481.5 179.1,473 157.5,473 157.5,481.5 135.9,481.5 135.9,473 114.3,473 114.3,481.5 92.7,481.5 92.7,473 71.1,473 
		71.1,481.5 49.5,481.5 49.5,473 27.9,473 27.9,481.5 6.3,481.5 6.3,473 -15.3,473 -15.3,481.5 -36.9,481.5 -36.9,473 -58.5,473 
		-58.5,481.5 -66.7,481.5 -66.7,471 -77.3,471 -77.3,481.5 -85.5,481.5 -85.5,473 -112.5,473 -112.5,449.1 -104,449.1 -104,437.1 
		-99.9,437.1 -99.9,442 -92.6,442 -92.6,437.1 -85.2,437.1 -85.2,428.7 -92.6,428.7 -92.6,423.8 -99.9,423.8 -99.9,428.7 
		-104,428.7 -104,416.7 -112.5,416.7 -112.5,395.1 -104,395.1 -104,373.5 -112.5,373.5 -112.5,351.9 -104,351.9 -104,330.3 
		-112.5,330.3 -112.5,308.7 -104,308.7 -104,287.1 -112.5,287.1 -112.5,265.5 -104,265.5 -104,243.9 -112.5,243.9 -112.5,222.3 
		-104,222.3 -104,200.7 -112.5,200.7 -112.5,179.1 -104,179.1 -104,157.5 -112.5,157.5 -112.5,135.9 -104,135.9 -104,114.3 
		-112.5,114.3 -112.5,92.7 -104,92.7 -104,71.1 -112.5,71.1 -112.5,49.5 -104,49.5 -104,27.9 -112.5,27.9 -112.5,6.3 -104,6.3 
		-104,-5.7 -99.9,-5.7 -99.9,-0.8 -92.6,-0.8 -92.6,-5.7 -85.2,-5.7 -85.2,-14.1 -92.6,-14.1 -92.6,-19 -99.9,-19 -99.9,-14.1 
		-104,-14.1 -104,-26.1 -112.5,-26.1 	"/>
</g>
<circle fill="none" stroke="#0000FF" stroke-width="2.834646e-02" stroke-miterlimit="10" cx="61.2" cy="748.8" r="5"/>
<circle fill="none" stroke="#0000FF" stroke-width="2.834646e-02" stroke-miterlimit="10" cx="406.8" cy="748.8" r="5"/>
<circle fill="none" stroke="#0000FF" stroke-width="2.834646e-02" stroke-miterlimit="10" cx="406.8" cy="583.2" r="5"/>
<circle fill="none" stroke="#0000FF" stroke-width="2.834646e-02" stroke-miterlimit="10" cx="61.2" cy="583.2" r="5"/>
<path fill="none" stroke="#0000FF" stroke-width="2.834646e-02" stroke-miterlimit="10" d="M375.1,751H88.6c-1.2,0-2.2-1-2.2-2.2
	v-54c0-1.2,1-2.2,2.2-2.2h286.6c1.2,0,2.2,1,2.2,2.2v54C377.3,750,376.3,751,375.1,751z"/>
<circle fill="none" stroke="#0000FF" stroke-width="2.834646e-02" stroke-miterlimit="10" cx="406.8" cy="676.8" r="5"/>
<circle fill="none" stroke="#0000FF" stroke-width="2.834646e-02" stroke-miterlimit="10" cx="61.2" cy="676.8" r="5"/>
<circle fill="none" stroke="#0000FF" stroke-width="2.834646e-02" stroke-miterlimit="10" cx="108" cy="663.1" r="9.9"/>
<circle fill="none" stroke="#0000FF" stroke-width="2.834646e-02" stroke-miterlimit="10" cx="144" cy="663.1" r="9.9"/>
<circle fill="none" stroke="#0000FF" stroke-width="2.834646e-02" stroke-miterlimit="10" cx="180" cy="663.1" r="9.9"/>
<circle fill="none" stroke="#0000FF" stroke-width="2.834646e-02" stroke-miterlimit="10" cx="216" cy="663.1" r="9.9"/>
<circle fill="none" stroke="#0000FF" stroke-width="2.834646e-02" stroke-miterlimit="10" cx="360" cy="663.1" r="9.9"/>
<circle fill="none" stroke="#0000FF" stroke-width="2.834646e-02" stroke-miterlimit="10" cx="324" cy="663.1" r="9.9"/>
<circle fill="none" stroke="#0000FF" stroke-width="2.834646e-02" stroke-miterlimit="10" cx="288" cy="663.1" r="9.9"/>
<circle fill="none" stroke="#0000FF" stroke-width="2.834646e-02" stroke-miterlimit="10" cx="252" cy="663.1" r="9.9"/>
<circle fill="none" stroke="#0000FF" stroke-width="2.834646e-02" stroke-miterlimit="10" cx="108" cy="619.9" r="9.9"/>
<circle fill="none" stroke="#0000FF" stroke-width="2.834646e-02" stroke-miterlimit="10" cx="144" cy="619.9" r="9.9"/>
<circle fill="none" stroke="#0000FF" stroke-width="2.834646e-02" stroke-miterlimit="10" cx="180" cy="619.9" r="9.9"/>
<circle fill="none" stroke="#0000FF" stroke-width="2.834646e-02" stroke-miterlimit="10" cx="216" cy="619.9" r="9.9"/>
<circle fill="none" stroke="#0000FF" stroke-width="2.834646e-02" stroke-miterlimit="10" cx="360" cy="619.9" r="9.9"/>
<circle fill="none" stroke="#0000FF" stroke-width="2.834646e-02" stroke-miterlimit="10" cx="324" cy="619.9" r="9.9"/>
<circle fill="none" stroke="#0000FF" stroke-width="2.834646e-02" stroke-miterlimit="10" cx="288" cy="619.9" r="9.9"/>
<circle fill="none" stroke="#0000FF" stroke-width="2.834646e-02" stroke-miterlimit="10" cx="252" cy="619.9" r="9.9"/>
<path fill="none" stroke="#FF0000" stroke-width="2.834646e-02" stroke-miterlimit="10" d="M378.3,756H89.7c-6.6,0-12-5.4-12-12
	V616.7c0-6.6,5.4-12,12-12h288.7c6.6,0,12,5.4,12,12V744C390.3,750.6,384.9,756,378.3,756z"/>
<circle fill="none" stroke="#0000FF" stroke-width="2.834646e-02" stroke-miterlimit="10" cx="61.2" cy="568.8" r="5"/>
<circle fill="none" stroke="#0000FF" stroke-width="2.834646e-02" stroke-miterlimit="10" cx="406.8" cy="568.8" r="5"/>
<circle fill="none" stroke="#0000FF" stroke-width="2.834646e-02" stroke-miterlimit="10" cx="406.8" cy="403.2" r="5"/>
<circle fill="none" stroke="#0000FF" stroke-width="2.834646e-02" stroke-miterlimit="10" cx="61.2" cy="403.2" r="5"/>
<path fill="none" stroke="#0000FF" stroke-width="2.834646e-02" stroke-miterlimit="10" d="M375.1,571H88.6c-1.2,0-2.2-1-2.2-2.2
	v-54c0-1.2,1-2.2,2.2-2.2h286.6c1.2,0,2.2,1,2.2,2.2v54C377.3,570,376.3,571,375.1,571z"/>
<circle fill="none" stroke="#0000FF" stroke-width="2.834646e-02" stroke-miterlimit="10" cx="406.8" cy="496.8" r="5"/>
<circle fill="none" stroke="#0000FF" stroke-width="2.834646e-02" stroke-miterlimit="10" cx="61.2" cy="496.8" r="5"/>
<circle fill="none" stroke="#0000FF" stroke-width="2.834646e-02" stroke-miterlimit="10" cx="108" cy="483.1" r="9.9"/>
<circle fill="none" stroke="#0000FF" stroke-width="2.834646e-02" stroke-miterlimit="10" cx="144" cy="483.1" r="9.9"/>
<circle fill="none" stroke="#0000FF" stroke-width="2.834646e-02" stroke-miterlimit="10" cx="180" cy="483.1" r="9.9"/>
<circle fill="none" stroke="#0000FF" stroke-width="2.834646e-02" stroke-miterlimit="10" cx="216" cy="483.1" r="9.9"/>
<circle fill="none" stroke="#0000FF" stroke-width="2.834646e-02" stroke-miterlimit="10" cx="360" cy="483.1" r="9.9"/>
<circle fill="none" stroke="#0000FF" stroke-width="2.834646e-02" stroke-miterlimit="10" cx="324" cy="483.1" r="9.9"/>
<circle fill="none" stroke="#0000FF" stroke-width="2.834646e-02" stroke-miterlimit="10" cx="288" cy="483.1" r="9.9"/>
<circle fill="none" stroke="#0000FF" stroke-width="2.834646e-02" stroke-miterlimit="10" cx="252" cy="483.1" r="9.9"/>
<circle fill="none" stroke="#0000FF" stroke-width="2.834646e-02" stroke-miterlimit="10" cx="108" cy="439.9" r="9.9"/>
<circle fill="none" stroke="#0000FF" stroke-width="2.834646e-02" stroke-miterlimit="10" cx="144" cy="439.9" r="9.9"/>
<circle fill="none" stroke="#0000FF" stroke-width="2.834646e-02" stroke-miterlimit="10" cx="180" cy="439.9" r="9.9"/>
<circle fill="none" stroke="#0000FF" stroke-width="2.834646e-02" stroke-miterlimit="10" cx="216" cy="439.9" r="9.9"/>
<circle fill="none" stroke="#0000FF" stroke-width="2.834646e-02" stroke-miterlimit="10" cx="360" cy="439.9" r="9.9"/>
<circle fill="none" stroke="#0000FF" stroke-width="2.834646e-02" stroke-miterlimit="10" cx="324" cy="439.9" r="9.9"/>
<circle fill="none" stroke="#0000FF" stroke-width="2.834646e-02" stroke-miterlimit="10" cx="288" cy="439.9" r="9.9"/>
<circle fill="none" stroke="#0000FF" stroke-width="2.834646e-02" stroke-miterlimit="10" cx="252" cy="439.9" r="9.9"/>
<path fill="none" stroke="#FF0000" stroke-width="2.834646e-02" stroke-miterlimit="10" d="M378.3,576H89.7c-6.6,0-12-5.4-12-12
	V436.7c0-6.6,5.4-12,12-12h288.7c6.6,0,12,5.4,12,12V564C390.3,570.6,384.9,576,378.3,576z"/>
<circle fill="none" stroke="#0000FF" stroke-width="2.834646e-02" stroke-miterlimit="10" cx="61.2" cy="388.8" r="5"/>
<circle fill="none" stroke="#0000FF" stroke-width="2.834646e-02" stroke-miterlimit="10" cx="61.2" cy="259.2" r="5"/>
<circle fill="none" stroke="#0000FF" stroke-width="2.834646e-02" stroke-miterlimit="10" cx="406.8" cy="388.8" r="5"/>
<circle fill="none" stroke="#0000FF" stroke-width="2.834646e-02" stroke-miterlimit="10" cx="406.8" cy="259.2" r="5"/>
<circle fill="none" stroke="#0000FF" stroke-width="2.834646e-02" stroke-miterlimit="10" cx="345.6" cy="280.8" r="9.9"/>
<path fill="none" stroke="#0000FF" stroke-width="2.834646e-02" stroke-miterlimit="10" d="M357.6,346.9h-24c-2,0-3.6-1.6-3.6-3.6
	v-9.8c0-2,1.6-3.6,3.6-3.6h24c2,0,3.6,1.6,3.6,3.6v9.8C361.2,345.3,359.6,346.9,357.6,346.9z"/>
<path fill="none" stroke="#0000FF" stroke-width="2.834646e-02" stroke-miterlimit="10" d="M274.8,346.9h-24c-2,0-3.6-1.6-3.6-3.6
	v-9.8c0-2,1.6-3.6,3.6-3.6h24c2,0,3.6,1.6,3.6,3.6v9.8C278.4,345.3,276.8,346.9,274.8,346.9z"/>
<path fill="none" stroke="#0000FF" stroke-width="2.834646e-02" stroke-miterlimit="10" d="M224.4,346.9h-24c-2,0-3.6-1.6-3.6-3.6
	v-9.8c0-2,1.6-3.6,3.6-3.6h24c2,0,3.6,1.6,3.6,3.6v9.8C228,345.3,226.4,346.9,224.4,346.9z"/>
<path fill="none" stroke="#0000FF" stroke-width="2.834646e-02" stroke-miterlimit="10" d="M174,346.9h-24c-2,0-3.6-1.6-3.6-3.6
	v-9.8c0-2,1.6-3.6,3.6-3.6h24c2,0,3.6,1.6,3.6,3.6v9.8C177.6,345.3,176,346.9,174,346.9z"/>
<path fill="none" stroke="#0000FF" stroke-width="2.834646e-02" stroke-miterlimit="10" d="M123.6,346.9h-24c-2,0-3.6-1.6-3.6-3.6
	v-9.8c0-2,1.6-3.6,3.6-3.6h24c2,0,3.6,1.6,3.6,3.6v9.8C127.2,345.3,125.6,346.9,123.6,346.9z"/>
<text transform="matrix(1 0 0 1 109.7533 354.9133)" font-family="'MyriadPro-Regular'" font-size="7.2">1</text>
<text transform="matrix(1 0 0 1 160.1533 354.9133)" font-family="'MyriadPro-Regular'" font-size="7.2">2</text>
<text transform="matrix(1 0 0 1 210.5533 354.9133)" font-family="'MyriadPro-Regular'" font-size="7.2">3</text>
<text transform="matrix(1 0 0 1 260.9533 354.9133)" font-family="'MyriadPro-Regular'" font-size="7.2">4</text>
<text transform="matrix(1 0 0 1 341.9423 354.9133)" font-family="'MyriadPro-Regular'" font-size="7.2">Fn</text>
<text transform="matrix(1 0 0 1 191.9213 389.501)" font-family="'Noteworthy-Light'" font-size="10.8">MuteBox v1, Designed &amp; built by Eran Rundstein</text>
</svg>
